<svg width="24" height="24" viewBox="0 0 24 24" fill="none" xmlns="http://www.w3.org/2000/svg">
<path d="M9.16129 15.9514C9.15474 15.0942 9.35761 14.3067 9.75354 13.5575C10.3589 12.4111 10.9348 11.2438 11.5238 10.0869C12.1651 8.83252 12.8064 7.58158 13.4478 6.32716C13.5198 6.19126 13.5917 6.05188 13.6572 5.9125C13.7128 5.79403 13.7554 5.81493 13.8077 5.91947C14.1382 6.57107 14.4752 7.22616 14.809 7.87776C15.4667 9.16703 16.1342 10.4528 16.7821 11.7491C17.178 12.5365 17.6361 13.2927 17.96 14.115C18.4607 15.3764 18.4214 16.6518 17.9142 17.9062C17.5019 18.9236 16.8279 19.6902 15.9215 20.2234C15.4012 20.53 14.8417 20.7147 14.2462 20.7809C12.741 20.9481 11.4583 20.4464 10.4112 19.2965C9.57685 18.3661 9.16783 17.2406 9.16129 15.9514ZM13.8568 19.6937C13.9288 19.6937 13.9975 19.6937 14.0695 19.6937C14.0924 19.6937 14.112 19.6902 14.1349 19.6868C15.3947 19.5056 16.3338 18.8156 16.9522 17.6414C17.3612 16.8573 17.4921 16.0176 17.2663 15.1395C17.2434 15.0524 17.2434 14.913 17.1584 14.906C17.07 14.899 17.0602 15.0384 17.0242 15.1186C16.4909 16.4044 15.7415 17.5124 14.6716 18.3557C14.1415 18.7738 13.5623 19.0909 12.9668 19.3801C12.9242 19.401 12.8522 19.4045 12.8522 19.4603C12.8522 19.5334 12.9308 19.5265 12.9766 19.5439C13.2613 19.6519 13.5558 19.7007 13.8568 19.6937Z" fill="black"/>
<path d="M8.62774 5C8.80084 5.29831 8.95697 5.56679 9.10631 5.83527C9.65954 6.82964 10.2128 7.82401 10.766 8.81838C10.8373 8.94433 10.8509 9.05371 10.7728 9.18961C10.0838 10.4127 9.40498 11.6424 8.71938 12.8655C8.38676 13.4588 8.09487 14.0653 7.98626 14.7415C7.93875 15.0398 7.9082 15.3448 7.89802 15.6464C7.89123 15.8254 7.87426 15.8453 7.69777 15.7955C6.69313 15.5237 5.93286 14.9437 5.44072 14.0488C4.92821 13.1174 4.87051 12.1429 5.22689 11.1485C5.3389 10.8403 5.52217 10.5652 5.6817 10.2801C6.45894 8.88467 7.23618 7.48592 8.01342 6.09049C8.21027 5.73915 8.41052 5.3878 8.62774 5Z" fill="black"/>
<path d="M12.9553 3.0013C13.6326 2.9885 14.1992 3.14638 14.7062 3.51334C14.8425 3.61149 14.9788 3.70536 15.1194 3.79923C15.8564 4.28567 16.7425 4.28994 17.4838 3.8035C17.6159 3.71816 17.7437 3.63282 17.8672 3.53895C18.847 2.78369 20.402 2.86476 21.4159 3.51761C21.6076 3.64136 21.6587 3.87177 21.5437 4.05952C21.4329 4.243 21.2114 4.29421 20.9984 4.2046C20.7045 4.08086 20.4105 3.92298 20.0995 3.85897C19.4264 3.71816 18.7917 3.82484 18.2336 4.26007C17.8502 4.55876 17.4369 4.81052 16.9427 4.90012C16.1589 5.04093 15.4134 4.95986 14.7317 4.51182C14.5954 4.42222 14.4633 4.33261 14.3313 4.23874C13.5474 3.67122 12.7209 3.69256 11.8689 4.06379C11.7667 4.10646 11.6772 4.17046 11.5792 4.2174C11.379 4.30701 11.1575 4.23874 11.0552 4.05525C10.9445 3.86324 11.0041 3.63709 11.2001 3.51761C11.7582 3.16772 12.3588 2.9885 12.9553 3.0013Z" fill="black"/>
<path d="M17.8668 6.53895C17.7433 6.63282 17.6155 6.71816 17.4834 6.8035C17.3098 6.91746 17.1282 7.00449 16.9424 7.06469C16.7949 7.04313 16.5 7.1 16.5 7.5C16.5 7.9 16.7949 7.93341 16.9424 7.90012C17.4366 7.81052 17.8498 7.55876 18.2332 7.26007C18.7913 6.82484 19.426 6.71816 20.0992 6.85897C20.4101 6.92298 20.7041 7.08086 20.998 7.2046C21.211 7.29421 21.4326 7.243 21.5433 7.05952C21.6584 6.87177 21.6072 6.64136 21.4155 6.51761C20.4016 5.86476 18.8467 5.78369 17.8668 6.53895Z" fill="black"/>
</svg>
