<svg width="24" height="24" viewBox="0 0 24 24" fill="none" xmlns="http://www.w3.org/2000/svg">
<path fill-rule="evenodd" clip-rule="evenodd" d="M12 4C12.2652 4 12.5196 4.10536 12.7071 4.29289C12.8946 4.48043 13 4.73478 13 5V6C13 6.26522 12.8946 6.51957 12.7071 6.70711C12.5196 6.89464 12.2652 7 12 7C11.7348 7 11.4804 6.89464 11.2929 6.70711C11.1054 6.51957 11 6.26522 11 6V5C11 4.73478 11.1054 4.48043 11.2929 4.29289C11.4804 4.10536 11.7348 4 12 4ZM16 12C16 13.0609 15.5786 14.0783 14.8284 14.8284C14.0783 15.5786 13.0609 16 12 16C10.9391 16 9.92172 15.5786 9.17157 14.8284C8.42143 14.0783 8 13.0609 8 12C8 10.9391 8.42143 9.92172 9.17157 9.17157C9.92172 8.42143 10.9391 8 12 8C13.0609 8 14.0783 8.42143 14.8284 9.17157C15.5786 9.92172 16 10.9391 16 12ZM15.536 16.95L16.243 17.657C16.4316 17.8392 16.6842 17.94 16.9464 17.9377C17.2086 17.9354 17.4594 17.8302 17.6448 17.6448C17.8302 17.4594 17.9354 17.2086 17.9377 16.9464C17.94 16.6842 17.8392 16.4316 17.657 16.243L16.95 15.536C16.7614 15.3538 16.5088 15.253 16.2466 15.2553C15.9844 15.2576 15.7336 15.3628 15.5482 15.5482C15.3628 15.7336 15.2576 15.9844 15.2553 16.2466C15.253 16.5088 15.3538 16.7614 15.536 16.95ZM17.656 6.343C17.8435 6.53053 17.9488 6.78484 17.9488 7.05C17.9488 7.31516 17.8435 7.56947 17.656 7.757L16.95 8.464C16.8578 8.55951 16.7474 8.63569 16.6254 8.6881C16.5034 8.74051 16.3722 8.7681 16.2394 8.76925C16.1066 8.7704 15.9749 8.7451 15.852 8.69482C15.7291 8.64454 15.6175 8.57029 15.5236 8.4764C15.4297 8.3825 15.3555 8.27085 15.3052 8.14795C15.2549 8.02506 15.2296 7.89338 15.2307 7.7606C15.2319 7.62782 15.2595 7.4966 15.3119 7.3746C15.3643 7.25259 15.4405 7.14225 15.536 7.05L16.243 6.343C16.4305 6.15553 16.6848 6.05021 16.95 6.05021C17.2152 6.05021 17.4695 6.15553 17.657 6.343H17.656ZM19 13C19.2652 13 19.5196 12.8946 19.7071 12.7071C19.8946 12.5196 20 12.2652 20 12C20 11.7348 19.8946 11.4804 19.7071 11.2929C19.5196 11.1054 19.2652 11 19 11H18C17.7348 11 17.4804 11.1054 17.2929 11.2929C17.1054 11.4804 17 11.7348 17 12C17 12.2652 17.1054 12.5196 17.2929 12.7071C17.4804 12.8946 17.7348 13 18 13H19ZM12 17C12.2652 17 12.5196 17.1054 12.7071 17.2929C12.8946 17.4804 13 17.7348 13 18V19C13 19.2652 12.8946 19.5196 12.7071 19.7071C12.5196 19.8946 12.2652 20 12 20C11.7348 20 11.4804 19.8946 11.2929 19.7071C11.1054 19.5196 11 19.2652 11 19V18C11 17.7348 11.1054 17.4804 11.2929 17.2929C11.4804 17.1054 11.7348 17 12 17ZM7.05 8.464C7.14284 8.55691 7.25308 8.63062 7.37441 8.68093C7.49574 8.73124 7.6258 8.75716 7.75715 8.7572C7.88849 8.75725 8.01857 8.73142 8.13993 8.6812C8.2613 8.63098 8.37159 8.55734 8.4645 8.4645C8.55741 8.37166 8.63112 8.26142 8.68143 8.14009C8.73174 8.01876 8.75766 7.8887 8.7577 7.75735C8.75775 7.62601 8.73192 7.49593 8.6817 7.37457C8.63148 7.2532 8.55784 7.14291 8.465 7.05L7.757 6.343C7.5684 6.16084 7.3158 6.06005 7.0536 6.06233C6.7914 6.0646 6.54059 6.16977 6.35518 6.35518C6.16977 6.54059 6.0646 6.7914 6.06233 7.0536C6.06005 7.3158 6.16084 7.5684 6.343 7.757L7.05 8.464ZM8.464 16.95L7.757 17.657C7.5684 17.8392 7.3158 17.94 7.0536 17.9377C6.7914 17.9354 6.54059 17.8302 6.35518 17.6448C6.16977 17.4594 6.0646 17.2086 6.06233 16.9464C6.06005 16.6842 6.16084 16.4316 6.343 16.243L7.05 15.536C7.2386 15.3538 7.4912 15.253 7.7534 15.2553C8.0156 15.2576 8.26641 15.3628 8.45182 15.5482C8.63723 15.7336 8.7424 15.9844 8.74467 16.2466C8.74695 16.5088 8.64616 16.7614 8.464 16.95ZM6 13C6.26522 13 6.51957 12.8946 6.70711 12.7071C6.89464 12.5196 7 12.2652 7 12C7 11.7348 6.89464 11.4804 6.70711 11.2929C6.51957 11.1054 6.26522 11 6 11H5C4.73478 11 4.48043 11.1054 4.29289 11.2929C4.10536 11.4804 4 11.7348 4 12C4 12.2652 4.10536 12.5196 4.29289 12.7071C4.48043 12.8946 4.73478 13 5 13H6Z" fill="black"/>
</svg>
