<svg width="24" height="24" viewBox="0 0 24 24" fill="none" xmlns="http://www.w3.org/2000/svg">
<path d="M18.1934 2C18.2364 2.02348 18.2834 2.04697 18.3304 2.06654C18.7883 2.2505 19.0349 2.70452 18.9331 3.18594C18.8431 3.62431 18.4243 3.957 17.9703 3.94917C17.5045 3.94135 17.0974 3.593 17.0231 3.14289C16.9448 2.66929 17.207 2.2231 17.6571 2.05871C17.7041 2.03914 17.7511 2.01957 17.802 2.00391C17.9311 2 18.0642 2 18.1934 2Z" fill="black"/>
<path d="M12.4113 2.40613C12.0904 3.75255 12.1099 4.96981 13.5425 5.68607C13.472 6.09704 13.3702 6.50801 13.335 6.9229C13.2372 8.0149 13.472 9.01297 14.2705 9.81143C14.9985 10.5394 15.9143 10.7899 16.9163 10.7234C17.3586 10.6921 17.8009 10.5903 18.2628 10.516C18.6189 11.0091 19.0377 11.4866 19.6953 11.6588C20.3528 11.8311 20.9321 11.6001 21.4996 11.2831C21.8362 13.8468 20.9164 17.8234 17.2764 20.3088C13.6951 22.7511 8.93177 22.528 5.55789 19.7608C2.23882 17.0406 1.08419 12.3947 2.76721 8.45327C4.53634 4.32008 8.6891 2.17912 12.4113 2.40613ZM6.88866 12.7039C7.69885 12.7039 8.35249 12.0542 8.35249 11.244C8.35249 10.4338 7.69885 9.7762 6.89257 9.7762C6.08628 9.7762 5.42482 10.4338 5.42482 11.24C5.4209 12.0424 6.07846 12.7039 6.88866 12.7039ZM15.7813 16.8214C15.7774 16.0738 15.1746 15.4711 14.427 15.475C13.6834 15.4789 13.0767 16.0895 13.0806 16.8332C13.0845 17.5768 13.6912 18.1796 14.4388 18.1757C15.1903 18.1757 15.7852 17.5729 15.7813 16.8214ZM7.84759 15.1188C7.27223 15.1149 6.8182 15.5689 6.8182 16.1404C6.8182 16.7079 7.2644 17.1619 7.82802 17.1658C8.40337 17.1737 8.86523 16.7236 8.86914 16.1521C8.86914 15.5807 8.41903 15.1227 7.84759 15.1188ZM11.5072 11.6471C11.0375 11.6432 10.6578 12.015 10.6539 12.4808C10.65 12.9465 11.0258 13.3262 11.4876 13.3301C11.9573 13.334 12.333 12.9622 12.3369 12.4964C12.3409 12.0228 11.9729 11.6471 11.5072 11.6471ZM10.8575 8.05796C10.8614 7.61176 10.5013 7.24776 10.059 7.24384C9.61672 7.23993 9.2488 7.60785 9.2488 8.04621C9.24489 8.4885 9.60889 8.8525 10.0512 8.85641C10.4935 8.86424 10.8575 8.50415 10.8575 8.05796Z" fill="black"/>
<path d="M18.1874 6.67404C18.1835 7.16721 17.7686 7.57818 17.2754 7.57818C16.7823 7.57426 16.3713 7.16721 16.3674 6.67013C16.3635 6.16914 16.7901 5.75034 17.2872 5.75816C17.7882 5.76599 18.1913 6.18088 18.1874 6.67404Z" fill="black"/>
</svg>
