<svg width="24" height="24" viewBox="0 0 24 24" fill="none" xmlns="http://www.w3.org/2000/svg">
<path d="M14.4133 7.22913V20.4194C14.4133 21.2042 14.1493 21.8833 13.5478 22.3964C12.785 23.0454 11.9048 23.1812 10.9952 22.7587C10.071 22.3361 9.58692 21.5664 9.57225 20.5401C9.55758 18.9706 9.57225 8.79868 9.57225 7.22913H14.4133ZM13.5331 13.0999C12.4916 13.0999 11.4793 13.0999 10.4671 13.0999C10.4671 13.1451 10.4525 15.2731 10.4525 15.3033C10.4525 17.0539 10.4378 18.8197 10.4671 20.5854C10.4671 21.174 10.7752 21.6268 11.274 21.8984C12.3155 22.4719 13.5331 21.7022 13.5331 20.4798C13.5331 19.4686 13.5331 18.4726 13.5331 17.4614C13.5331 16.7219 13.5331 13.8695 13.5331 13.0999Z" fill="black"/>
<path d="M15 7H9V8.84121H15V7Z" fill="black"/>
<path d="M10.9095 5.87139C11.4119 5.87139 11.8191 5.45247 11.8191 4.9357C11.8191 4.41893 11.4119 4 10.9095 4C10.4072 4 10 4.41893 10 4.9357C10 5.45247 10.4072 5.87139 10.9095 5.87139Z" fill="black"/>
<path d="M13.9095 4.87139C14.4119 4.87139 14.8191 4.45247 14.8191 3.9357C14.8191 3.41893 14.4119 3 13.9095 3C13.4072 3 13 3.41893 13 3.9357C13 4.45247 13.4072 4.87139 13.9095 4.87139Z" fill="black"/>
<path d="M11.9095 2.87139C12.4119 2.87139 12.8191 2.45247 12.8191 1.9357C12.8191 1.41893 12.4119 1 11.9095 1C11.4072 1 11 1.41893 11 1.9357C11 2.45247 11.4072 2.87139 11.9095 2.87139Z" fill="black"/>
</svg>
