<svg width="24" height="24" viewBox="0 0 24 24" fill="none" xmlns="http://www.w3.org/2000/svg">
<path d="M13.724 10.9672C13.724 12.2913 13.724 13.6154 13.7207 14.9396C13.7207 15.0474 13.7471 15.1161 13.8394 15.1848C15.0227 16.0577 15.56 17.5617 15.1941 18.9741C14.8249 20.4061 13.6219 21.4719 12.1518 21.6746C10.1643 21.9493 8.30529 20.5794 8.03831 18.5948C7.85373 17.2118 8.33825 16.0675 9.44574 15.1978C9.54132 15.1226 9.58088 15.0507 9.58088 14.9297C9.57758 12.3371 9.57758 9.74112 9.57758 7.14845C9.57758 6.49129 9.79842 5.92567 10.3159 5.50391C10.9751 4.96445 11.7266 4.85002 12.5045 5.19985C13.2923 5.55296 13.7109 6.1905 13.724 7.0471C13.7405 8.35161 13.724 9.65939 13.724 10.9672ZM10.3324 11.4837C11.2223 11.4837 12.0925 11.4837 12.9627 11.4837C12.9659 11.4478 12.9725 11.4282 12.9725 11.4053C12.9725 9.94056 12.9824 8.47258 12.9659 7.00786C12.9627 6.52071 12.7056 6.14473 12.2705 5.91586C11.3805 5.44179 10.339 6.08261 10.3324 7.10268C10.3291 7.94293 10.3324 8.77991 10.3324 9.62016C10.3324 10.2348 10.3324 10.8495 10.3324 11.4837Z" fill="black"/>
<path d="M16.0001 8.40409C15.9965 7.94632 16.1073 7.52577 16.3236 7.12568C16.6542 6.51346 16.9687 5.89008 17.2904 5.27227C17.6407 4.60237 17.991 3.93432 18.3412 3.26441C18.3806 3.19184 18.4199 3.11741 18.4556 3.04297C18.486 2.9797 18.5092 2.99087 18.5378 3.04669C18.7183 3.39467 18.9024 3.74451 19.0847 4.09249C19.4439 4.78101 19.8085 5.46766 20.1624 6.1599C20.3786 6.58045 20.6288 6.98426 20.8057 7.42342C21.0792 8.09705 21.0577 8.77812 20.7807 9.44803C20.5555 9.9914 20.1874 10.4008 19.6923 10.6855C19.4082 10.8492 19.1026 10.9479 18.7773 10.9832C17.9552 11.0726 17.2547 10.8046 16.6828 10.1905C16.2271 9.69366 16.0037 9.0926 16.0001 8.40409ZM18.5646 10.4026C18.604 10.4026 18.6415 10.4026 18.6808 10.4026C18.6933 10.4026 18.704 10.4008 18.7166 10.3989C19.4046 10.3022 19.9175 9.93371 20.2553 9.3066C20.4787 8.88791 20.5502 8.43945 20.4269 7.97051C20.4143 7.92399 20.4143 7.84956 20.3679 7.84583C20.3196 7.84211 20.3143 7.91655 20.2946 7.95935C20.0033 8.646 19.594 9.23775 19.0096 9.68808C18.7201 9.91138 18.4038 10.0807 18.0785 10.2352C18.0553 10.2463 18.016 10.2482 18.016 10.278C18.016 10.317 18.0589 10.3133 18.0839 10.3226C18.2394 10.3803 18.4002 10.4064 18.5646 10.4026Z" fill="black"/>
</svg>
