<svg width="24" height="24" viewBox="0 0 24 24" fill="none" xmlns="http://www.w3.org/2000/svg">
<path d="M13.724 10.9672C13.724 12.2913 13.724 13.6154 13.7207 14.9396C13.7207 15.0474 13.7471 15.1161 13.8394 15.1848C15.0227 16.0577 15.56 17.5617 15.1941 18.9741C14.8249 20.4061 13.6219 21.4719 12.1518 21.6746C10.1643 21.9493 8.30529 20.5794 8.03831 18.5948C7.85373 17.2118 8.33825 16.0675 9.44574 15.1978C9.54132 15.1226 9.58088 15.0507 9.58088 14.9297C9.57758 12.3371 9.57758 9.74112 9.57758 7.14845C9.57758 6.49129 9.79842 5.92567 10.3159 5.50391C10.9751 4.96445 11.7266 4.85002 12.5045 5.19985C13.2923 5.55296 13.7109 6.1905 13.724 7.0471C13.7405 8.35161 13.724 9.65939 13.724 10.9672ZM10.3324 11.4837C11.2223 11.4837 12.0925 11.4837 12.9627 11.4837C12.9659 11.4478 12.9725 11.4282 12.9725 11.4053C12.9725 9.94056 12.9824 8.47258 12.9659 7.00786C12.9627 6.52071 12.7056 6.14473 12.2705 5.91586C11.3805 5.44179 10.339 6.08261 10.3324 7.10268C10.3291 7.94293 10.3324 8.77991 10.3324 9.62016C10.3324 10.2348 10.3324 10.8495 10.3324 11.4837Z" fill="black"/>
<path d="M12.9553 2.0013C13.6326 1.9885 14.1992 2.14638 14.7062 2.51334C14.8425 2.61149 14.9788 2.70536 15.1194 2.79923C15.8564 3.28567 16.7425 3.28994 17.4838 2.8035C17.6159 2.71816 17.7437 2.63282 17.8672 2.53895C18.847 1.78369 20.402 1.86476 21.4159 2.51761C21.6076 2.64136 21.6587 2.87177 21.5437 3.05952C21.4329 3.243 21.2114 3.29421 20.9984 3.2046C20.7045 3.08086 20.4105 2.92298 20.0995 2.85897C19.4264 2.71816 18.7917 2.82484 18.2336 3.26007C17.8502 3.55876 17.4369 3.81052 16.9427 3.90012C16.1589 4.04093 15.4134 3.95986 14.7317 3.51182C14.5954 3.42222 14.4633 3.33261 14.3313 3.23874C13.5474 2.67122 12.7209 2.69256 11.8689 3.06379C11.7667 3.10646 11.6772 3.17046 11.5792 3.2174C11.379 3.30701 11.1575 3.23874 11.0552 3.05525C10.9445 2.86324 11.0041 2.63709 11.2001 2.51761C11.7582 2.16772 12.3588 1.9885 12.9553 2.0013Z" fill="black"/>
<path d="M17.8668 5.53895C17.7433 5.63282 17.6155 5.71816 17.4834 5.8035C17.3098 5.91746 17.1282 6.00449 16.9424 6.06469C16.7949 6.04313 16.5 6.1 16.5 6.5C16.5 6.9 16.7949 6.93341 16.9424 6.90012C17.4366 6.81052 17.8498 6.55876 18.2332 6.26007C18.7913 5.82484 19.426 5.71816 20.0992 5.85897C20.4101 5.92298 20.7041 6.08086 20.998 6.2046C21.211 6.29421 21.4326 6.243 21.5433 6.05952C21.6584 5.87177 21.6072 5.64136 21.4155 5.51761C20.4016 4.86476 18.8467 4.78369 17.8668 5.53895Z" fill="black"/>
</svg>
