<svg width="142" height="142" viewBox="0 0 142 142" fill="none" xmlns="http://www.w3.org/2000/svg">
<path d="M112.633 61.1933C114.761 60.3356 115.023 60.4475 115.919 62.5356C116.815 64.6611 117.375 66.8611 117.749 69.1356C117.786 69.3967 117.674 69.695 118.01 69.8068C118.01 71.7458 118.01 73.6848 118.01 75.6238C117.413 76.5187 117.525 77.6373 117.226 78.6068C114.649 87.295 109.646 93.8577 100.907 97.139C99.0775 97.8102 97.173 98.1458 95.1938 98.2204C96.7249 96.2814 98.0319 94.2306 99.0775 91.9933C100.272 89.3458 101.281 86.6983 99.7123 83.8645C102.476 79.017 104.343 73.9085 104.231 68.2034C104.754 68.2034 104.978 67.7933 105.314 67.5322C107.741 65.4068 110.206 63.3187 112.633 61.1933Z" fill="#69A039"/>
<path d="M71.2948 16C71.7056 16.522 72.3404 16.261 72.8632 16.3729C76.2987 17.0068 78.8007 19.1322 81.228 21.4068C82.0495 22.1898 82.7964 23.0847 83.5432 23.9051C81.8628 24.9492 80.145 25.9559 78.5766 27.1119C76.0373 28.939 73.7594 31.0644 72.079 33.7492C71.0334 33.7492 69.9504 33.7864 68.9048 33.7864C66.5896 30.7661 63.8636 28.2305 60.5774 26.2542C59.4571 25.583 58.1501 25.2475 57.2166 24.2407C59.8305 21.2203 62.6313 18.3492 66.4776 16.8576C67.4485 16.4847 68.5314 16.5593 69.4276 16.0373C70.0625 16 70.6973 16 71.2948 16Z" fill="#558C30"/>
<path d="M99.6749 83.8646C101.243 86.6985 100.272 89.3459 99.0401 91.9934C97.9945 94.2307 96.6875 96.2815 95.1564 98.2205C91.8703 101.912 87.8746 104.373 82.9453 105.343C82.4225 105.343 81.8997 105.343 81.3396 105.343C79.6965 105.38 78.0534 105.343 76.485 104.895C73.4229 104 71.4811 101.949 70.5849 98.7052C69.3526 102.546 67 104.671 63.1163 105.156C61.3986 105.38 59.6808 105.231 57.963 105.343C54.2287 104.559 50.8679 102.993 48.0298 100.383C47.3577 99.7493 46.6855 99.0781 46.0507 98.4442C44.7437 96.9527 43.5861 95.312 42.7272 93.5595C41.2335 90.5019 39.3663 87.4442 41.2708 83.8646C42.8392 82.5968 44.4823 81.7391 46.6482 81.9256C47.8431 82.0375 49.0754 82.3358 50.2704 82.2239C53.5939 82.7086 56.7681 83.6781 59.7555 85.2442C64.1993 87.5561 68.3817 90.129 70.5849 95.0137C70.8836 94.3052 71.145 93.5595 71.5184 92.851C71.8919 92.1425 72.3773 91.5459 72.9748 90.9866C77.9788 86.251 83.8416 83.3052 90.6379 82.2239C91.0861 82.1866 91.4968 82.1493 91.9449 82.112C94.7457 81.8137 97.509 81.6273 99.6749 83.8646Z" fill="#7CB342"/>
<path d="M41.3082 83.8646C39.4411 87.4443 41.2709 90.5019 42.7646 93.5595C43.6234 95.3121 44.7811 96.9527 46.0881 98.4443C39.4784 98.1832 34.1384 95.3121 29.9187 90.3154C22.9729 82.0748 21.0684 72.8646 25.0641 62.6849C25.923 60.5222 26.2591 60.4476 28.3876 61.529C28.6863 61.7527 29.0224 61.9765 29.3212 62.2375C31.8231 64.4002 34.2878 66.5629 36.7524 68.7629C36.6777 70.2171 36.9391 71.6341 37.1632 73.051C37.8353 76.929 39.3664 80.4714 41.3082 83.8646Z" fill="#69A039"/>
<path d="M57.2165 24.2407C58.1127 25.2475 59.4571 25.5831 60.5773 26.2542C63.8635 28.2305 66.5895 30.7661 68.9048 33.7864C65.0585 35.0542 61.959 37.4034 59.121 40.2373C56.3576 42.9593 54.4531 46.2407 52.7354 49.6712C52.2499 49.6712 51.8765 49.3356 51.6151 49.0746C50.0093 47.4339 48.0302 47.1356 45.9016 47.322C45.5655 45.4949 44.3706 44.078 43.3997 42.5865C42.242 40.7966 40.4869 39.5661 39.1799 37.9254C40.8604 33.0034 43.6611 28.8644 47.6567 25.5458C50.0467 23.5322 52.8847 23.1966 55.9095 23.9424C56.2829 24.0542 56.731 24.3525 57.2165 24.2407Z" fill="#69A039"/>
<path d="M82.9455 110.339C82.9455 115.298 82.9828 120.22 83.0202 125.18C83.0202 125.814 82.8334 126 82.1986 126C74.4313 126 66.6267 126 58.8594 126C58.2246 126 58.0378 125.814 58.0378 125.18C58.0752 120.22 58.0752 115.298 58.1125 110.339C61.324 110.451 64.6475 110.526 67.5603 109.109C69.6514 108.102 71.2198 107.729 73.4231 108.959C76.2985 110.6 79.6593 110.451 82.9455 110.339Z" fill="#558C30"/>
<path d="M39.1421 37.888C40.4491 39.5286 42.2042 40.7964 43.3619 42.549C44.3328 44.0405 45.5278 45.4575 45.8638 47.2846C43.8473 48.2914 42.5777 50.0066 41.4574 51.8337C38.2833 57.0168 36.6028 62.61 36.8269 68.7252C34.3623 66.5625 31.8603 64.3998 29.3957 62.1998C29.0969 61.9388 28.7609 61.7151 28.4621 61.4914C27.2298 53.549 29.2836 46.5015 34.3249 40.2371C35.5572 38.7083 36.9016 37.4032 39.1421 37.888Z" fill="#7DB343"/>
<path d="M82.9455 110.339C79.6967 110.413 76.2985 110.6 73.3857 108.959C71.1825 107.729 69.6141 108.064 67.5229 109.108C64.6102 110.525 61.2867 110.451 58.0752 110.339C58.0752 108.661 58.0378 106.983 58.0378 105.305C59.7556 105.193 61.4734 105.342 63.1911 105.119C67.0748 104.634 69.4274 102.508 70.6597 98.6677C71.5933 101.912 73.4977 104 76.5599 104.858C78.1283 105.305 79.7713 105.342 81.4144 105.305C81.9372 105.305 82.46 105.305 83.0202 105.305C82.9828 107.02 82.9455 108.661 82.9455 110.339Z" fill="#346B23"/>
<path d="M72.0784 33.7489C73.7588 31.0642 76.0367 28.9387 78.576 27.1116C80.1818 25.9557 81.8995 24.9862 83.5426 23.9048C85.223 23.7184 86.8661 23.1964 88.6212 23.6065C90.1896 23.9794 91.646 24.576 92.8783 25.5828C96.9487 28.976 99.9361 33.0777 101.803 37.9998C101.617 38.2235 101.43 38.5218 101.206 38.7082C98.4424 41.0947 96.4259 44.0031 94.8948 47.2845C92.8783 47.1353 91.0112 47.4337 89.5175 48.9998C89.2187 49.2981 88.8079 49.6709 88.2851 49.6709C84.8869 42.3252 79.883 36.6201 72.0784 33.7489Z" fill="#69A039"/>
<path d="M94.895 47.2848C96.4261 44.0034 98.4426 41.095 101.206 38.7085C101.43 38.5221 101.579 38.2611 101.803 38C103.671 37.478 104.978 38.1865 106.173 39.6034C111.475 45.8678 113.79 52.9899 112.633 61.1933C110.168 63.3187 107.741 65.4068 105.276 67.5322C104.94 67.8305 104.716 68.2407 104.193 68.2034C104.305 62.7966 102.961 57.7627 100.31 53.1017C99.0027 50.7526 97.6584 48.3289 94.895 47.2848Z" fill="#7DB343"/>
<path d="M94.8951 47.2847C97.6585 48.3661 98.9655 50.7525 100.31 53.1017C102.961 57.7627 104.306 62.7966 104.193 68.2034C104.306 73.8712 102.438 79.0169 99.675 83.8644C97.4718 81.6271 94.7458 81.8136 91.9824 82.1491C91.5343 82.1864 91.1235 82.2237 90.6754 82.261C90.7501 81.0678 90.2646 80.0237 89.9286 78.9424C88.3975 74.1695 85.8208 69.9932 82.348 66.3763C81.5264 65.5186 80.4435 64.922 80.0701 63.7288C81.1904 59.6644 83.1695 56.0102 85.8582 52.7288C86.6797 51.722 87.8747 50.9763 88.3228 49.7085C88.8456 49.6712 89.2564 49.3356 89.5551 49.0373C91.0488 47.4339 92.8786 47.1356 94.8951 47.2847Z" fill="#558C30"/>
<path d="M88.2854 49.6714C87.8 50.9764 86.6423 51.6849 85.8208 52.6917C83.1321 55.9731 81.1903 59.6273 80.0327 63.6917C79.4725 63.7663 79.1364 63.4307 78.763 63.0951C74.1325 59.1053 67.7842 58.9561 62.855 62.6476C62.2948 63.0578 61.8094 63.8036 60.9505 63.6917C59.7555 59.5154 57.8137 55.8239 54.9757 52.5053C54.1915 51.5731 53.1085 50.8646 52.6978 49.6714C54.4155 46.2409 56.3573 42.9595 59.0834 40.2375C61.9214 37.4036 65.0209 35.0544 68.8672 33.7866C69.9128 33.7866 70.9957 33.7493 72.0413 33.7493C79.8833 36.6205 84.8872 42.3256 88.2854 49.6714Z" fill="#7CB342"/>
<path d="M60.9505 63.6918C61.8468 63.8037 62.2949 63.0952 62.855 62.6477C67.7843 58.9562 74.1325 59.1054 78.763 63.0952C79.1365 63.4308 79.4726 63.7664 80.0327 63.6918C80.4061 64.9223 81.5264 65.5189 82.3106 66.3393C85.7835 69.9562 88.3228 74.1325 89.8912 78.9054C90.2273 79.9867 90.7127 81.0308 90.638 82.224C83.8417 83.3054 77.9415 86.2511 72.9749 90.9867C72.3774 91.546 71.892 92.1799 71.5185 92.8511C71.1451 93.5223 70.8837 94.2681 70.585 95.0138C68.4191 90.1291 64.1994 87.5562 59.7556 85.2443C56.7682 83.6782 53.594 82.7087 50.2705 82.224C50.3079 81.8884 50.3452 81.5155 50.4199 81.1799C51.9136 75.2884 54.8637 70.2172 59.0834 65.8545C59.7929 65.2206 60.7265 64.7359 60.9505 63.6918Z" fill="#69A039"/>
<path d="M60.9506 63.6918C60.7266 64.7359 59.793 65.2206 59.1208 65.8918C54.9011 70.2545 51.951 75.3257 50.4573 81.2172C50.3826 81.5528 50.3453 81.9257 50.308 82.2613C49.0756 82.3732 47.8807 82.0749 46.6857 81.963C44.5198 81.7766 42.8767 82.6342 41.3083 83.902C39.3292 80.5088 37.7981 76.9664 37.2006 73.0511C36.9766 71.6342 36.7152 70.2172 36.7899 68.763C36.5658 62.6105 38.2462 57.0172 41.4204 51.8342C42.5407 50.0071 43.8477 48.2918 45.8268 47.285C47.9554 47.0986 49.9719 47.3969 51.5403 49.0376C51.8017 49.3359 52.1751 49.6715 52.6605 49.6342C53.0713 50.8647 54.1543 51.5732 54.9385 52.4681C57.8139 55.824 59.793 59.5528 60.9506 63.6918Z" fill="#558C30"/>
</svg>
