<svg width="142" height="142" viewBox="0 0 142 142" fill="none" xmlns="http://www.w3.org/2000/svg">
<path d="M108.722 39.7984C108.891 39.7815 108.908 39.5786 108.958 39.4433C109.77 37.1779 108.367 35.7409 107.454 38.057C107.318 38.4121 108.299 39.8153 108.722 39.7984Z" fill="#966796"/>
<path d="M112.493 45.6142C112.205 44.9717 103.701 35.9438 103.177 35.6564C100.827 34.4054 98.3421 33.6108 95.6878 33.3234C91.9685 32.9007 88.4182 33.4417 84.9862 34.9126C82.5856 35.9438 80.6075 37.5837 78.5957 39.2067C71.7318 44.752 64.0564 48.894 55.7893 51.9709C50.8865 53.7798 45.933 55.4536 41.0809 57.3978C34.2001 60.1704 28.2491 64.194 23.228 69.7224C17.5306 75.9946 14.4706 83.2135 14.3354 91.6666C14.2846 94.9295 14.9102 99.0884 16.4993 103.095C19.086 109.604 23.3633 114.693 29.3142 118.395C33.6422 121.083 38.359 122.571 43.414 122.943C46.2711 123.146 49.1452 122.994 51.9685 122.385C56.7698 121.354 61.1147 119.41 64.9693 116.366C68.1646 113.847 70.9034 110.838 73.7605 107.981C81.2838 100.475 88.3167 92.5288 95.2145 84.4476C98.9676 80.0351 102.619 75.5381 106.288 71.041C108.858 67.8796 111.056 64.5322 112.493 60.6945C114.386 55.6564 114.707 50.6522 112.493 45.6142Z" fill="#966796"/>
<path d="M114.895 37.4963C114.895 37.4963 121.682 43.5887 121.436 51.3351C121.189 59.0815 113.912 65.7061 113.912 65.7061C113.912 65.7061 107.125 59.6138 107.371 51.8673C107.618 44.1209 114.895 37.4963 114.895 37.4963Z" fill="#4B6E35"/>
<path d="M108.035 31.5017C108.035 31.5017 101.46 38.6541 94.1443 39.3314C86.8284 40.0088 81.3885 34.0476 81.3885 34.0476C81.3885 34.0476 87.9784 26.7361 95.2943 26.0588C102.61 25.3815 108.035 31.5017 108.035 31.5017Z" fill="#4B6E35"/>
<path d="M115.288 30.2672C115.288 30.2672 115.913 43.0643 108.449 50.5284C100.985 57.9925 88.0728 57.4825 88.0728 57.4825C88.0728 57.4825 87.4479 44.6854 94.912 37.2213C102.376 29.7572 115.288 30.2672 115.288 30.2672Z" fill="#4B6E35"/>
</svg>
