<svg width="142" height="142" viewBox="0 0 142 142" fill="none" xmlns="http://www.w3.org/2000/svg">
<path d="M73.2712 56.0782C73.2712 56.0782 58.486 56.8339 49.8769 48.1426C41.2678 39.4513 42.0164 24.3359 42.0164 24.3359C42.0164 24.3359 56.8016 23.5802 65.4107 32.2715C74.0198 40.9628 73.2712 56.0782 73.2712 56.0782Z" fill="#4B6E35"/>
<path d="M69.7153 56.0783C69.7153 56.0783 68.9667 41.1519 77.5758 32.4606C86.1848 23.7692 100.97 24.3361 100.97 24.3361C100.97 24.3361 101.906 39.4514 93.2967 48.1428C84.6876 56.8341 69.7153 56.0783 69.7153 56.0783Z" fill="#4B6E35"/>
<path d="M71.587 57.7792C71.587 57.7792 60.5449 47.7653 60.5449 35.4841C60.5449 23.2029 71.587 13 71.587 13C71.587 13 82.6291 23.0139 82.6291 35.2951C82.6291 47.5764 71.587 57.7792 71.587 57.7792Z" fill="#4B6E35"/>
<path d="M102.119 81.6121C102.119 99.2893 70.601 129.341 70.601 129.341C70.601 129.341 39.083 99.2893 39.083 81.6121C39.083 63.9348 53.091 49.793 70.601 49.793C88.111 49.793 102.119 64.1558 102.119 81.6121Z" fill="#A779AC"/>
</svg>
