<svg width="142" height="142" viewBox="0 0 142 142" fill="none" xmlns="http://www.w3.org/2000/svg">
<path d="M56.5699 86.1132C49.1125 85.9558 43.2914 82.8408 39.3897 76.4218C38.9177 75.6352 38.3828 75.9184 37.785 75.9813C29.1634 76.9567 21.832 71.3873 21.0768 63.049C20.5419 57.2593 22.8074 52.6339 27.6845 49.3929C28.597 48.7951 28.7544 48.3231 28.4397 47.2848C24.7583 34.6671 34.1035 22.7731 47.2875 23.2766C48.2 23.3081 48.8608 23.3395 49.3013 22.2068C51.3781 16.8262 56.8531 14.1201 62.391 15.6305C63.2405 15.8507 63.7755 15.7878 64.4677 15.19C71.5474 9.08566 82.0569 10.9421 86.6823 19.0288C87.1228 19.8154 87.5319 20.0671 88.4759 19.9727C99.0483 18.9029 108.142 25.9826 109.652 36.4606C109.778 37.4046 110.187 37.7507 111.037 38.0339C116.984 40.1421 120.476 44.3899 120.948 50.6516C121.42 56.8503 118.651 61.5701 113.176 64.5593C112.327 65.0313 112.044 65.5033 112.012 66.4472C111.792 73.9675 103.674 78.4985 97.1289 74.7541C96.2478 74.2507 95.7758 74.1563 95.2095 75.1317C93.825 77.4916 91.4651 78.8761 89.3254 80.4179C87.6892 80.827 86.053 81.236 84.4483 81.6765C83.4414 81.6765 82.466 81.6765 81.4591 81.708C79.9802 81.3619 78.5013 80.9843 77.0224 80.6382C76.4246 79.9459 75.6065 79.6313 74.7884 79.3481C74.1276 78.7817 73.4668 78.2153 72.806 77.6175C72.4285 77.2714 72.1138 77.2714 71.7992 77.6804C70.8237 78.939 69.7854 80.1662 68.8099 81.3933C67.9604 81.6136 67.4255 82.2429 66.8591 82.8408C65.569 83.4386 64.2474 83.9421 63.1461 84.8546C62.2336 84.7916 61.4785 85.3265 60.6289 85.4524C59.2444 85.7041 57.8914 85.9244 56.5699 86.1132Z" fill="#135526"/>
<path d="M56.5696 86.1136C57.9226 85.8934 59.2441 85.7046 60.5972 85.4843C60.6916 86.0507 60.723 86.6171 60.8804 87.1835C62.4222 93.099 63.901 99.0145 64.9394 105.024C65.0338 105.559 64.845 106.22 65.5687 106.818C65.6002 99.2348 64.4989 92.0606 63.0829 84.8865C64.1842 83.974 65.5058 83.4706 66.7959 82.8727C67.3937 87.3723 67.4252 91.9033 67.7084 96.4343C68.4321 91.4628 68.7153 86.4598 68.7467 81.4253C69.7536 80.1981 70.7605 78.9395 71.7359 77.7124C72.0821 77.2718 72.3653 77.2718 72.7428 77.6494C73.4036 78.2473 74.0644 78.7822 74.7252 79.38C74.1903 86.8374 73.5295 94.2947 74.442 102.098C74.6308 99.3606 74.7566 96.9692 74.9769 94.5779C75.4489 89.921 75.9523 85.2326 76.9592 80.6387C78.4381 80.9848 79.917 81.3624 81.3958 81.7085C80.4519 87.5611 79.6023 93.4136 80.4204 99.3606C81.1441 93.3192 82.623 87.4667 84.3851 81.677C86.0213 81.268 87.6575 80.8589 89.2622 80.4184C87.9092 84.3516 86.4618 88.2848 85.2032 92.2494C82.0252 102.444 80.1372 112.828 80.1372 123.526C80.1372 125.194 80.2631 126.861 80.4204 128.529C80.4833 129.41 80.2631 129.725 79.3191 129.725C74.3476 129.693 69.4075 129.693 64.436 129.725C63.5864 129.725 63.3661 129.442 63.4291 128.624C64.5933 113.898 61.3523 99.8641 56.5696 86.1136Z" fill="#64AE41"/>
</svg>
