<svg width="142" height="142" viewBox="0 0 142 142" fill="none" xmlns="http://www.w3.org/2000/svg">
<path d="M98.7957 26.6815C95.1544 30.2171 84.4407 31.569 84.4407 31.569C84.4407 31.569 86.1074 20.8997 89.7487 17.3641C93.39 13.8285 98.3134 13.0705 100.826 15.6587C103.34 18.2469 102.391 23.1901 98.7957 26.6815Z" fill="#D49E5D"/>
<path d="M71.4614 87.5C69.9614 74.1667 70.6614 44 85.4614 30" stroke="#344529" stroke-width="3.5" stroke-linecap="round"/>
<path d="M54.9172 108.2C54.9172 95.5333 70.9172 74 70.9172 74C70.9172 74 86.9172 95.5333 86.9172 108.2C86.9172 120.867 79.8061 131 70.9172 131C62.0283 131 54.9172 120.708 54.9172 108.2Z" fill="#446132"/>
<path d="M70.9172 124V96" stroke="#344529" stroke-width="3.5" stroke-linecap="round"/>
<path d="M119.162 63.8883C114.467 61.9616 108.949 52.6788 108.949 52.6788C108.949 52.6788 119.397 49.9467 124.092 51.8734C128.788 53.8 131.448 58.0113 130.079 61.3488C128.71 64.6863 123.799 65.7908 119.162 63.8883Z" fill="#D49E5D"/>
<path d="M52.4878 63.112C64.1131 56.4129 92.0501 45.0093 110.795 52.9881" stroke="#344529" stroke-width="3.5" stroke-linecap="round"/>
<path d="M26.9037 56.2094C38.5168 51.1516 64.6478 57.2227 64.6478 57.2227C64.6478 57.2227 51.2942 80.49 39.6812 85.5477C28.0681 90.6054 15.9382 88.132 12.3889 79.9824C8.8396 71.8329 15.4358 61.2039 26.9037 56.2094Z" fill="#446132"/>
<path d="M18.8065 77.1873L44.4775 66.0071" stroke="#344529" stroke-width="3.5" stroke-linecap="round"/>
</svg>
