<svg width="142" height="142" viewBox="0 0 142 142" fill="none" xmlns="http://www.w3.org/2000/svg">
<path d="M70.7565 75.1473C73.1743 74.5734 71.9237 61.0109 67.9631 44.8547C64.0026 28.6985 58.8318 16.0666 56.414 16.6406C53.9962 17.2145 55.2468 30.777 59.2074 46.9332C63.168 63.0894 68.3387 75.7213 70.7565 75.1473Z" fill="#5D503D"/>
<path d="M81.2042 44.3044C84.9233 28.0933 85.9715 14.5148 83.5454 13.9759C81.1194 13.4369 76.1378 26.1416 72.4188 42.3527C68.6997 58.5637 67.6515 72.1423 70.0775 72.6812C72.5036 73.2201 77.4852 60.5154 81.2042 44.3044Z" fill="#5D503D"/>
<path d="M86.3176 58.6264C93.1317 49.4956 96.8448 40.785 94.611 39.1708C92.3772 37.5565 85.0423 43.6499 78.2282 52.7807C71.4141 61.9115 67.701 70.6221 69.9348 72.2364C72.1686 73.8506 79.5034 67.7573 86.3176 58.6264Z" fill="#5D503D"/>
<path d="M67.9669 67.9862C69.5253 66.589 66.0551 60.344 60.216 54.0376C54.377 47.7312 48.3801 43.7515 46.8217 45.1487C45.2633 46.5459 48.7335 52.791 54.5726 59.0974C60.4117 65.4038 66.4085 69.3834 67.9669 67.9862Z" fill="#5D503D"/>
<path d="M87.4292 74.9801H54.9609V74.4315C54.9609 69.4089 59.0784 65.3571 64.1824 65.3571H78.2077C83.3117 65.3571 87.4292 69.4089 87.4292 74.4315V74.9801Z" fill="#EAAE78"/>
<path d="M71.1736 129.974C62.2095 129.974 54.9609 83.1676 54.9609 74.4309V74.3465H87.3863V74.4309C87.4292 83.2098 80.1378 129.974 71.1736 129.974Z" fill="#EAAE78"/>
</svg>
