<svg width="142" height="142" viewBox="0 0 142 142" fill="none" xmlns="http://www.w3.org/2000/svg">
<path d="M56.5699 98.538C49.1125 98.3806 43.2914 95.2656 39.3897 88.8466C38.9177 88.06 38.3828 88.3432 37.785 88.4061C29.1634 89.3815 21.832 83.8121 21.0768 75.4738C20.5419 69.6841 22.8074 65.0587 27.6845 61.8178C28.597 61.2199 28.7544 60.7479 28.4397 59.7096C24.7583 47.0919 34.1035 35.198 47.2875 35.7014C48.2 35.7329 48.8608 35.7643 49.3013 34.6316C51.3781 29.251 56.8531 26.5449 62.391 28.0553C63.2405 28.2755 63.7755 28.2126 64.4677 27.6148C71.5474 21.5105 82.0569 23.3669 86.6823 31.4536C87.1228 32.2402 87.5319 32.4919 88.4759 32.3975C99.0483 31.3277 108.142 38.4074 109.652 48.8854C109.778 49.8294 110.187 50.1755 111.037 50.4587C116.984 52.5669 120.476 56.8147 120.948 63.0764C121.42 69.2751 118.651 73.9949 113.176 76.9841C112.327 77.4561 112.044 77.9281 112.012 78.872C111.792 86.3923 103.674 90.9233 97.1289 87.1789C96.2478 86.6755 95.7758 86.5811 95.2095 87.5565C93.825 89.9164 91.4651 91.3009 89.3254 92.8427C87.6892 93.2518 86.053 93.6608 84.4483 94.1013C83.4414 94.1013 82.466 94.1013 81.4591 94.1328C79.9802 93.7867 78.5013 93.4091 77.0224 93.063C76.4246 92.3707 75.6065 92.0561 74.7884 91.7729C74.1276 91.2065 73.4668 90.6401 72.806 90.0423C72.4285 89.6962 72.1138 89.6962 71.7992 90.1052C70.8237 91.3638 69.7854 92.591 68.8099 93.8182C67.9604 94.0384 67.4255 94.6677 66.8591 95.2656C65.569 95.8634 64.2474 96.3669 63.1461 97.2794C62.2336 97.2164 61.4785 97.7513 60.6289 97.8772C59.2444 98.1289 57.8914 98.3492 56.5699 98.538Z" fill="#E5E5E5"/>
<path d="M57 94.5076C58.3244 94.394 59.6179 94.2967 60.9423 94.1831C61.0346 94.4752 61.0654 94.7673 61.2194 95.0594C62.7286 98.1103 64.1761 101.161 65.1925 104.261C65.2849 104.537 65.1001 104.877 65.8085 105.186C65.8393 101.275 64.7613 97.5748 63.3754 93.8747C64.4533 93.4041 65.7469 93.1445 67.0096 92.8361C67.5948 95.1568 67.6256 97.4936 67.9028 99.8305C68.6112 97.2664 68.8884 94.6861 68.9192 92.0896C69.9047 91.4567 70.8903 90.8076 71.845 90.1747C72.1838 89.9475 72.461 89.9475 72.8306 90.1422C73.4774 90.4506 74.1242 90.7264 74.7709 91.0348C74.2474 94.8809 73.6006 98.727 74.4937 102.752C74.6785 101.34 74.8017 100.106 75.0173 98.873C75.4793 96.4713 75.9721 94.0532 76.9576 91.6839C78.4052 91.8624 79.8527 92.0572 81.3003 92.2357C80.3763 95.2541 79.5448 98.2726 80.3455 101.34C81.0539 98.2239 82.5014 95.2054 84.2262 92.2194C85.8277 92.0085 87.4293 91.7975 89 91.5703C87.6756 93.5989 86.2589 95.6274 85.027 97.6721C81.9163 102.93 80.0683 108.285 80.0683 113.803C80.0683 114.663 80.1915 115.523 80.3455 116.383C80.4071 116.838 80.1915 117 79.2676 117C74.4013 116.984 69.5659 116.984 64.6997 117C63.8681 117 63.6525 116.854 63.7141 116.432C64.8537 108.837 61.6814 101.599 57 94.5076Z" fill="#C4C4C4"/>
</svg>
