<svg width="142" height="142" viewBox="0 0 142 142" fill="none" xmlns="http://www.w3.org/2000/svg">
<path d="M68.8036 66.9762C65.6667 66.9762 63.0833 64.3929 63.0833 61.2559V42.9881C63.0833 31.5476 53.6726 30.4405 50.7202 30.4405C47.5833 30.4405 45 27.8571 45 24.7202C45 21.5833 47.5833 19 50.7202 19C60.3155 19 74.5238 25.4583 74.5238 42.9881V61.2559C74.5238 64.5774 71.9405 66.9762 68.8036 66.9762Z" fill="#4B6E35"/>
<path d="M127.884 81.2317C126.733 64.0626 115.415 48.3323 98.6615 43.1208C91.7555 40.9786 84.7855 40.6269 77.7836 42.6092C75.3218 43.0568 73.0198 44.016 70.7817 45.1031C69.6627 45.6466 68.8953 45.5507 67.9042 44.8473C66.3695 43.7283 64.675 42.8011 62.9165 42.1296C57.737 40.1474 52.4296 39.444 46.9624 40.4671C35.9959 42.5133 27.875 48.7799 22.056 57.9879C13.8072 70.9366 11.9208 84.9724 16.2691 99.7436C18.0915 105.946 20.8731 111.701 25.9886 115.89C31.2321 120.206 37.083 121.549 43.5094 118.575C44.3407 118.192 44.7563 118.447 45.3318 118.895C52.5575 124.33 60.3907 125.417 68.7994 121.964C69.5348 121.645 70.1742 121.645 70.9416 121.9C77.8476 124.33 84.5298 123.851 90.9562 120.238C91.7875 119.758 92.4269 119.694 93.2901 120.142C96.5513 121.836 100.036 122.348 103.681 121.836C109.98 120.941 114.839 117.52 118.612 112.596C125.614 103.356 128.651 92.8376 127.884 81.2317Z" fill="#F08A51"/>
</svg>
