<svg width="142" height="142" viewBox="0 0 142 142" fill="none" xmlns="http://www.w3.org/2000/svg">
<path d="M120.621 47.5777L106.428 33.3808L112.88 27.089C114.331 25.637 116.912 25.637 118.363 27.089L126.911 35.6394C128.363 37.0913 128.363 39.6726 126.911 41.1245L120.621 47.5777Z" fill="#96C969"/>
<path d="M17.3994 106.784C14.6575 100.008 15.6252 91.7807 25.4636 85.4889C33.6891 80.1651 74.6554 67.0975 96.9127 38.2197C101.429 32.4119 109.654 31.4439 115.46 35.7998C121.267 40.317 121.912 48.3834 117.88 54.3525C92.8805 90.6514 56.4302 112.915 42.8823 116.787C31.7537 119.852 20.9476 115.657 17.3994 106.784Z" fill="#4B6E35"/>
</svg>
