<svg width="142" height="142" viewBox="0 0 142 142" fill="none" xmlns="http://www.w3.org/2000/svg">
<path d="M82.2416 111.797C79.8653 111.821 76.6249 111.485 73.4085 110.573C71.8483 110.117 70.2641 109.973 68.6559 110.021C67.1197 110.069 65.9195 110.861 64.9114 112.229C63.7833 113.766 62.7031 115.374 61.3349 116.646C59.3667 118.47 57.1104 119.334 54.6861 119.598C51.7817 119.91 49.0214 119.214 46.381 117.726C44.3648 116.574 42.5406 115.038 41.2204 112.781C40.2363 111.101 39.6602 109.205 39.5402 107.141C39.3721 103.9 39.9002 100.852 41.1484 97.9715C41.7244 96.6514 42.5165 95.4992 43.1406 94.203C44.2208 91.9228 44.3408 89.6425 43.1166 87.3382C42.2525 85.706 41.1724 84.3138 40.0442 82.9696C38.58 81.2414 37.0679 79.5612 35.5797 77.857C34.4035 76.5128 33.2514 75.1686 32.2672 73.6084C30.9951 71.6162 30.7791 69.3599 31.1871 66.9836C31.5952 64.6313 32.6273 62.8791 34.4275 61.8229C35.5317 61.1748 36.7078 61.0308 37.908 61.1748C38.7001 61.2708 39.4922 61.4389 40.2843 61.5589C40.7883 61.6309 40.8843 61.4629 40.7163 60.8868C40.3803 59.7827 39.8282 58.7985 39.3241 57.8144C37.5959 54.454 36.6598 50.8295 36.8038 46.845C36.8758 44.5407 37.3799 42.3564 38.58 40.5322C39.3001 39.4281 40.3083 38.756 41.3644 38.2519C44.0527 37.0278 46.5011 37.7479 48.7333 39.7881C50.4376 41.3483 51.5417 43.4366 52.0458 45.9809C52.1178 46.341 52.2378 46.677 52.3578 47.013C52.6458 47.7811 53.1019 47.9972 53.75 47.6851C54.134 47.4931 54.5181 47.2531 54.9021 47.037C57.0864 45.7889 59.0306 46.533 60.6389 48.5492C61.911 50.1334 62.151 52.1017 61.935 54.1899C61.719 56.3262 61.1189 58.3425 60.5668 60.3587C60.3028 61.3189 60.0388 62.279 59.9908 63.3111C59.9188 64.5353 60.8309 65.7354 61.839 65.8314C62.8471 65.9274 63.6152 65.3034 64.3113 64.4873C65.6315 62.9271 66.1115 60.9348 66.2796 58.7985C66.5196 55.9662 66.4476 53.1578 66.3036 50.3255C66.1596 47.109 65.8475 43.9166 65.9675 40.7002C66.0395 38.636 66.2076 36.5957 66.8316 34.6515C67.1677 33.6433 67.5517 32.6832 68.1998 31.9151C69.688 30.1869 71.6563 29.1308 73.7925 30.2109C75.0167 30.835 75.9288 31.9391 76.6969 33.2353C77.321 34.2914 77.681 35.4916 78.0891 36.6917C78.3051 37.2918 78.5451 37.8919 78.8332 38.4439C79.0972 38.924 79.4572 39.14 79.9373 39.092C80.2974 39.068 80.5134 38.852 80.6094 38.3959C80.7774 37.5318 80.6094 36.6917 80.5614 35.8516C80.4174 33.7153 80.1533 31.6031 80.4414 29.4668C80.7774 26.9225 81.7855 24.9542 83.5378 23.514C84.6179 22.6259 85.7941 22.0499 87.1142 22.0019C88.8184 21.9538 90.2106 22.842 91.4588 24.1861C91.9388 24.7142 92.3949 25.2663 92.7789 25.9144C93.7631 27.5706 94.6512 27.5226 96.1154 26.6104C97.4115 25.8183 98.6357 24.8582 99.9319 24.0661C101.732 22.986 103.628 22.794 105.549 23.5621C108.381 24.6902 109.989 27.1865 110.685 30.643C111.237 33.3793 111.069 36.0436 110.133 38.612C109.461 40.4842 108.357 41.8764 106.893 42.8605C105.549 43.7486 104.084 44.3487 102.716 45.1408C101.684 45.7409 100.7 46.365 100.028 47.5891C99.5718 48.4052 99.4278 49.2933 99.4758 50.2534C99.4998 50.6615 99.6918 50.8535 100.028 50.8295C100.844 50.7575 101.684 50.6855 102.5 50.6135C104.276 50.4455 105.837 51.0215 107.157 52.4857C108.573 54.0459 109.437 56.0142 109.821 58.2705C110.277 61.0548 109.701 63.5751 108.309 65.8314C106.389 68.9758 103.772 70.8961 100.796 72.1922C98.1076 73.3684 95.3233 73.9205 92.5389 74.4725C90.8347 74.8086 89.1305 75.0966 87.4503 75.6727C86.3461 76.0567 85.29 76.5128 84.4259 77.4489C83.9458 77.953 83.6098 78.577 83.2977 79.2251C83.1537 79.5372 83.2017 79.8252 83.3937 80.1132C83.8498 80.7133 84.3779 81.1454 85.0019 81.3854C86.2021 81.8895 87.4023 81.7695 88.6264 81.5534C90.3066 81.2414 91.9388 80.5933 93.595 80.2093C95.1072 79.8732 96.5954 79.5132 98.1316 79.5852C99.8118 79.6572 101.492 79.9452 103.076 80.7613C105.813 82.1775 107.205 84.8419 107.589 88.3223C107.997 91.9228 107.805 95.4752 106.749 98.9076C105.885 101.74 104.492 104.14 102.572 106.085C100.46 108.245 98.0116 109.493 95.3953 110.213C93.427 110.741 91.4348 111.101 89.4185 111.341C87.3542 111.677 85.266 111.773 82.2416 111.797Z" fill="#CEC3B7"/>
</svg>
