<svg width="142" height="142" viewBox="0 0 142 142" fill="none" xmlns="http://www.w3.org/2000/svg">
<path d="M65.6451 121.406C64.8035 124.547 63.0505 127.055 61.07 127.819C59.1614 128.602 57.4252 127.878 56.5421 125.699C54.2819 120.303 51.2054 108.732 55.3486 93.2701L74.9962 19.9444C75.6112 17.6492 76.7701 15.6292 78.1994 14.329C79.5963 13.1496 81.0872 12.7723 82.2868 13.4821C90.7736 17.8277 89.3063 33.1008 87.2995 40.5904L65.6451 121.406Z" fill="#4B6E35"/>
<path d="M39.6803 110.969C37.2927 113.176 34.4718 114.362 32.389 113.952C30.3569 113.596 29.2749 112.057 29.6905 109.743C30.6582 103.973 34.2301 92.546 45.9845 81.6793L101.726 30.1474C103.471 28.5344 105.529 27.4444 107.432 27.1074C109.242 26.8553 110.705 27.3317 111.34 28.5721C116.2 36.7757 106.809 48.9101 101.116 54.1736L39.6803 110.969Z" fill="#6A954F"/>
</svg>
