<svg width="142" height="142" viewBox="0 0 142 142" fill="none" xmlns="http://www.w3.org/2000/svg">
<path d="M87 50.8C87 67.9111 57.5 97 57.5 97C57.5 97 28 67.9111 28 50.8C28 33.6889 41.1111 20 57.5 20C73.8889 20 87 33.9028 87 50.8Z" fill="#446132"/>
<path d="M58 117V79" stroke="#446132" stroke-width="3" stroke-linecap="round" stroke-linejoin="round"/>
<path d="M113 71.6C113 85.8222 88.5 110 88.5 110C88.5 110 64 85.8222 64 71.6C64 57.3778 74.8889 46 88.5 46C102.111 46 113 57.5556 113 71.6Z" fill="#638B49"/>
<path d="M89 122V84" stroke="#638B49" stroke-width="3" stroke-linecap="round" stroke-linejoin="round"/>
</svg>
