<svg width="142" height="142" viewBox="0 0 142 142" fill="none" xmlns="http://www.w3.org/2000/svg">
<path d="M70.7204 82.1471C72.3014 82.0668 72.6455 65.8804 71.4888 45.9937C70.3321 26.1071 68.1127 10.051 66.5316 10.1313C64.9505 10.2116 64.6065 26.398 65.7632 46.2846C66.9199 66.1713 69.1393 82.2274 70.7204 82.1471Z" fill="#6C8756"/>
<path d="M72.6772 98.5653C74.3578 98.6705 76.6108 82.6318 77.7093 62.7419C78.8078 42.852 78.336 26.6428 76.6554 26.5376C74.9748 26.4324 72.7219 42.4711 71.6233 62.361C70.5248 82.2509 70.9967 98.4601 72.6772 98.5653Z" fill="#6C8756"/>
<path d="M102.982 103.606C103.075 105.56 102.796 107.98 102.238 110.306C100.656 117.379 96.4684 122.404 89.6752 124.73C78.2292 128.638 66.5971 128.638 55.1511 125.009C45.8454 122.031 41.937 114.773 41.0995 105.374C40.355 96.1615 43.7981 89.2753 51.1496 84.0641C54.8719 81.3655 58.6872 78.946 62.5026 76.3404C66.1318 73.8278 69.4818 71.1292 71.343 66.9416C71.8083 66.011 72.3666 66.011 72.7388 66.8486C75.3444 72.2459 80.1834 75.3167 84.9293 78.4807C88.7446 81.0863 92.653 83.3196 96.0031 86.5766C101.307 91.6017 103.075 95.8823 102.982 103.606Z" fill="#D9BCA1"/>
</svg>
