<svg width="142" height="142" viewBox="0 0 142 142" fill="none" xmlns="http://www.w3.org/2000/svg">
<path d="M71.7919 61.9762C68.6549 61.9762 66.0716 59.3929 66.0716 56.2559V37.9881C66.0716 26.5476 56.6609 25.4405 53.7085 25.4405C50.5716 25.4405 47.9883 22.8571 47.9883 19.7202C47.9883 16.5833 50.5716 14 53.7085 14C63.3038 14 77.5121 20.4583 77.5121 37.9881V56.2559C77.5121 59.5774 74.9288 61.9762 71.7919 61.9762Z" fill="#4B6E35"/>
<path d="M105.375 48.6902H82.3095C80.0952 48.6902 78.25 50.5354 78.25 52.7497C78.25 53.1188 78.25 53.4878 78.4345 53.8569L64.5952 53.3033C64.5952 53.1188 64.5952 52.9342 64.5952 52.7497C64.5952 50.5354 62.75 48.6902 60.5357 48.6902H35.625C35.625 48.6902 24 48.6902 24 60.3152C24 71.9402 24 83.5652 35.625 95.1902V116.779C35.625 116.779 35.625 128.404 47.25 128.404C51.3095 128.404 55.369 128.404 58.875 128.404C65.5179 128.404 70.5 116.779 70.5 116.779C70.5 116.779 75.4821 128.404 82.125 128.404C85.631 128.404 89.6905 128.404 93.75 128.404C105.375 128.404 105.375 116.779 105.375 116.779V95.1902C117 83.5652 117 71.9402 117 60.3152C117 48.6902 105.375 48.6902 105.375 48.6902Z" fill="#AF565F"/>
</svg>
