<svg width="142" height="142" viewBox="0 0 142 142" fill="none" xmlns="http://www.w3.org/2000/svg">
<path d="M97.2917 91.5026C97.2917 105.074 69.8087 128.147 69.8087 128.147C69.8087 128.147 42.3257 105.074 42.3257 91.5026C42.3257 77.9308 54.5404 67.0733 69.8087 67.0733C85.077 67.0733 97.2917 78.1004 97.2917 91.5026Z" fill="#D1719F"/>
<path d="M80.5648 22.242C80.7726 22.5097 80.9805 22.7774 81.1884 23.045C81.8404 21.6805 82.72 20.4252 83.9657 19.4578C88.1479 16.21 94.1622 16.9747 97.4189 21.1683C100.676 25.3619 99.9274 31.3783 95.7453 34.6261L95.6563 34.6952C96.4776 35.2017 97.1902 35.9356 97.8138 36.7387C101.07 40.9322 100.322 46.9487 96.1401 50.1965C93.8266 51.9931 90.8596 52.5809 88.2083 51.9221C87.7248 53.871 86.5192 55.8085 84.8285 57.1214C82.0701 59.2636 78.4007 59.6816 75.4226 58.4184C73.0997 60.9376 70.5302 64.7925 70.6915 69.9596C70.6915 69.9596 62.4189 64.0829 64.7271 53.279C63.4311 52.7122 62.2633 51.7595 61.3625 50.5996C58.1058 46.406 58.8541 40.3896 63.0362 37.1418C64.1929 36.2435 65.5576 35.6128 66.8828 35.2988C66.3781 34.8326 65.8734 34.3663 65.4576 33.831C62.2009 29.6374 62.9492 23.621 67.1313 20.3732C71.2937 17.2837 77.3081 18.0484 80.5648 22.242Z" fill="#638B49"/>
<path d="M38.6939 28.6178C38.6083 28.9458 38.5228 29.2737 38.4372 29.6016C37.3002 28.6044 35.9971 27.7974 34.4709 27.3992C29.3473 26.0624 24.1211 29.1354 22.7806 34.273C21.4401 39.4107 24.4988 44.6453 29.6224 45.9822L29.7314 46.0106C29.1762 46.7998 28.8105 47.7551 28.5538 48.7389C27.2133 53.8766 30.272 59.1112 35.3955 60.4481C38.2299 61.1876 41.1884 60.5585 43.3655 58.9082C44.578 60.5088 46.4495 61.8144 48.5208 62.3548C51.9002 63.2366 55.4374 62.1747 57.6766 59.8401C60.8044 61.24 64.6851 63.7703 66.5731 68.5828C66.5731 68.5828 71.8603 59.9215 65.4812 50.9017C66.449 49.8699 67.1468 48.5342 67.5176 47.1131C68.858 41.9755 65.7994 36.7408 60.6758 35.404C59.2586 35.0342 57.7559 34.9924 56.4141 35.2261C56.6943 34.5987 56.9744 33.9713 57.1455 33.3154C58.486 28.1777 55.4274 22.9431 50.3038 21.6063C45.2607 20.4072 40.0344 23.4802 38.6939 28.6178Z" fill="#638B49"/>
</svg>
