<svg width="142" height="142" viewBox="0 0 142 142" fill="none" xmlns="http://www.w3.org/2000/svg">
<path d="M85.2084 68.6356C93.6042 68.6356 100.224 61.8729 100.224 53.661C100.224 45.9322 94.4115 39.6525 86.9845 38.8475C86.3386 30.9576 79.8803 25 71.9688 25C64.0574 25 57.599 31.1186 56.9532 38.8475C55.9845 38.6864 54.8542 38.5254 53.8855 38.5254C45.4897 38.5254 38.8699 45.2881 38.8699 53.5C38.8699 61.7119 45.6511 68.4746 53.8855 68.4746L59.2136 111.466L68.7397 116.458L80.4998 115.5L85.2084 68.6356Z" fill="#7A427A"/>
<path d="M117.047 63.0003C116.563 63.0003 116.078 63.0003 115.594 63.0003C116.563 61.0681 117.209 58.9749 117.209 56.7206C117.209 49.1528 111.073 43.0342 103.485 43.0342C95.8962 43.0342 89.7607 49.1528 89.7607 56.7206V56.8816C88.4691 56.3986 87.016 56.2376 85.5628 56.2376C77.9743 56.2376 71.8389 62.3562 71.8389 69.924C71.8389 74.1105 73.7764 77.9749 76.8441 80.3901C75.068 82.6443 73.9378 85.7037 73.9378 88.763C73.9378 93.7545 76.6826 98.263 80.7191 100.517C79.9118 105.348 77.8128 111.627 71.8389 115.975C71.8389 115.975 85.7243 120.161 95.8962 108.085C97.6722 109.051 99.7712 109.534 101.87 109.534C109.459 109.534 115.594 103.416 115.594 95.8477C115.594 93.7545 115.11 91.6613 114.302 89.8901C115.271 90.0511 116.24 90.2121 117.209 90.2121C124.797 90.2121 130.933 84.0935 130.933 76.5257C130.933 69.1189 124.636 63.0003 117.047 63.0003Z" fill="#966796"/>
<path d="M24.8854 63.0003C25.3698 63.0003 25.8542 63.0003 26.3385 63.0003C25.3698 61.0681 24.724 58.9749 24.724 56.7206C24.724 49.1528 30.8594 43.0342 38.4479 43.0342C46.0365 43.0342 52.1719 49.1528 52.1719 56.7206V56.8816C53.4635 56.3986 54.9167 56.2376 56.3698 56.2376C63.9583 56.2376 70.0937 62.3562 70.0937 69.924C70.0937 74.1105 68.1562 77.9749 65.0885 80.3901C66.8646 82.6443 67.9948 85.7037 67.9948 88.763C67.9948 93.7545 65.25 98.263 61.2135 100.517C62.0208 105.348 64.1198 111.627 70.0937 115.975C70.0937 115.975 56.2083 120.161 46.0365 108.085C44.2604 109.051 42.1615 109.534 40.0625 109.534C32.474 109.534 26.3385 103.416 26.3385 95.8477C26.3385 93.7545 26.8229 91.6613 27.6302 89.8901C26.6615 90.0511 25.6927 90.2121 24.724 90.2121C17.1354 90.2121 11 84.0935 11 76.5257C11.1615 69.1189 17.2969 63.0003 24.8854 63.0003Z" fill="#966796"/>
</svg>
