<svg width="142" height="142" viewBox="0 0 142 142" fill="none" xmlns="http://www.w3.org/2000/svg">
<path d="M70.7295 64.1018C70.7104 64.1399 70.7008 64.1748 70.6816 64.2128C70.6656 64.2604 70.6496 64.308 70.6336 64.3555C70.3811 64.9359 70.135 65.5036 69.8824 66.084C69.4157 67.1687 68.7391 68.1333 68.1833 69.1738C68.1641 69.2119 68.1418 69.2405 68.1131 69.2817C67.8929 69.5768 67.6663 69.853 67.5734 70.2112C67.4395 70.2876 67.3725 70.4049 67.3468 70.5508C67.3085 70.5635 67.2957 70.5889 67.2989 70.6301C67.1235 70.773 67.0531 70.976 66.9827 71.1789L66.9699 71.2043C66.9603 71.2392 66.938 71.2677 66.9284 71.3026C66.8359 71.3757 66.8039 71.4708 66.7878 71.5817C66.6157 71.7025 66.558 71.9117 66.4654 72.0799C65.9032 73.133 65.2837 74.1736 64.9602 75.3372L64.9506 75.3404C64.663 75.9748 64.5632 76.6309 64.7054 77.312C64.7274 77.4418 64.7591 77.5685 64.7843 77.7079C64.8255 77.8314 64.8699 77.9644 64.9206 78.0847C64.9458 78.2241 64.9966 78.3444 65.1047 78.4456C65.5458 79.3225 66.4429 79.8468 67.3792 79.7562C67.6276 79.7367 67.8538 79.6824 68.0515 79.5109C68.8579 79.0308 69.1139 78.2381 69.2936 77.4075L69.2905 77.398C69.4725 77.0523 69.5369 76.6719 69.6044 76.301C69.6236 76.2312 69.6396 76.152 69.6684 76.079C69.7835 75.819 69.8921 75.5716 70.0072 75.3115L70.0327 75.2925C70.0932 75.2828 70.1124 75.2448 70.0934 75.1878L70.0998 75.1751C70.5848 74.5594 70.7472 74.5685 71.2556 75.1696C71.5194 75.4828 71.5888 75.882 71.7984 76.2238C71.8332 76.36 71.8553 76.4899 71.8901 76.6261C71.9116 77.1045 71.9235 77.5862 71.945 78.0646C71.9449 78.0963 71.9449 78.128 71.9448 78.1597C71.868 78.407 71.8485 78.6669 71.8703 78.9235C71.752 79.2058 71.7356 79.5069 71.7288 79.8048L71.7383 79.8016C71.7223 79.8491 71.7159 79.8935 71.6967 79.9316C71.6839 79.957 71.6839 79.9886 71.7029 80.014C71.5492 80.5403 71.4496 81.0697 71.385 81.6085C71.369 81.6561 71.3531 81.7037 71.3466 81.748C71.1382 82.6199 70.9298 83.4917 70.7118 84.3668L70.7213 84.3636C70.6672 84.3922 70.6512 84.4398 70.6702 84.4968C70.651 84.5348 70.6446 84.5792 70.6254 84.6173L70.6126 84.6426C70.3151 85.502 70.0239 86.3486 69.7263 87.208L69.7518 87.2206L69.7359 87.2048C69.5507 87.5094 69.4419 87.8518 69.368 88.2037C69.3488 88.2735 69.3232 88.3559 69.304 88.4257C68.8979 89.4373 68.6701 90.474 68.7797 91.567C68.7382 91.6654 68.7093 91.77 68.7665 91.8776C68.7695 91.9505 68.7694 92.0139 68.7725 92.0867C68.7851 92.1564 68.7977 92.2261 68.8104 92.2958C68.7497 92.4005 68.7845 92.505 68.8194 92.6095C68.7971 92.6381 68.8066 92.6666 68.8256 92.6919C68.7902 92.936 68.828 93.1767 68.8977 93.4174C68.9103 93.4871 68.9229 93.5568 68.9324 93.617C68.9443 94.0986 68.9945 94.5675 69.0987 95.0395C69.0729 95.2487 69.0758 95.4483 69.171 95.6383C69.1638 96.1263 69.2872 96.5919 69.3724 97.0702C69.3977 97.1462 69.4104 97.2159 69.4357 97.2919C69.4598 98.1284 69.6368 98.9456 69.8233 99.7597C69.8327 99.8199 69.8453 99.8896 69.8644 99.9466C69.842 99.9751 69.8515 100.004 69.8801 100.026C69.867 100.241 69.8954 100.454 69.9937 100.653C69.9553 100.761 69.9902 100.865 70.0506 100.951C70.0343 101.125 70.0882 101.287 70.1516 101.445C70.2963 102.516 70.5493 103.561 70.8119 104.603C70.8562 104.768 70.8973 104.923 70.9416 105.088C71.0898 105.978 71.3112 106.865 71.6059 107.716C71.6023 107.992 71.6847 108.239 71.8084 108.483C71.8366 108.758 71.9318 109.012 72.0269 109.265C72.0137 109.544 72.1374 109.788 72.2517 110.035C72.3018 110.504 72.489 110.937 72.6347 111.374C73.1955 113.088 73.7849 114.791 74.3552 116.501C74.4027 116.644 74.4758 116.767 74.5424 116.903C74.577 117.166 74.6467 117.407 74.8151 117.625C74.891 117.885 74.9575 118.148 75.1099 118.382C75.1858 118.705 75.2904 119.019 75.4778 119.294C75.5 119.361 75.5221 119.427 75.5539 119.49C75.8294 120.38 76.2516 121.2 76.61 122.052C76.6988 122.255 76.794 122.445 76.5899 122.629C76.4975 122.67 76.4019 122.702 76.3095 122.743C75.9814 122.842 75.6659 122.947 75.379 123.138C75.1592 123.212 74.9298 123.288 74.71 123.361C74.3851 123.438 74.0474 123.508 73.7225 123.585L73.6843 123.566C73.678 123.547 73.6717 123.528 73.6558 123.512C73.3992 122.711 73.1553 121.916 72.8987 121.115C72.649 120.016 72.2941 118.952 71.9074 117.888C71.8948 117.85 71.8821 117.812 71.879 117.771C71.7366 117.216 71.6325 116.649 71.4041 116.124C71.3851 116.067 71.3629 116 71.3439 115.943C71.29 115.782 71.2457 115.617 71.1919 115.456C71.119 115.237 71.0557 115.015 70.9796 114.787C70.8027 113.97 70.5652 113.163 70.2831 112.38C70.2292 112.219 70.1881 112.064 70.1342 111.902C69.6344 109.926 69.055 107.965 68.4787 106.014C68.4249 105.821 68.3615 105.631 68.3109 105.448C68.3241 105.169 68.2194 104.919 68.1179 104.678C68.1119 104.469 68.0358 104.272 67.9533 104.089C67.8265 103.741 67.9801 103.278 67.5188 103.072C67.2166 102.867 66.8921 102.722 66.5323 102.662C66.4688 102.568 66.3893 102.52 66.2778 102.536C66.052 102.369 65.7879 102.277 65.5269 102.195C65.5078 102.17 65.4728 102.161 65.4346 102.173C65.1515 101.993 64.8588 101.848 64.531 101.757L64.5183 101.751C64.4992 101.694 64.4642 101.684 64.4069 101.703L64.3846 101.7C63.6179 101.28 62.8224 100.933 62.0174 100.589C61.9697 100.574 61.9188 100.548 61.871 100.533C60.8084 99.9897 59.7458 99.4467 58.6832 98.9037C58.6164 98.8627 58.54 98.8248 58.4732 98.7837L58.4637 98.7552L58.4319 98.7553C58.4351 98.7331 58.4223 98.7268 58.4001 98.7237C58.3906 98.6635 58.3556 98.654 58.2982 98.6732L58.276 98.67C57.9865 98.471 57.7163 98.2338 57.3726 98.1268C57.3185 98.0603 57.2677 98.0034 57.2041 97.9401C57.0452 97.782 56.7875 97.6462 56.858 97.3799C56.9381 97.0787 57.2469 97.0813 57.4889 97.0745C58.0876 97.0543 58.683 97.0563 59.288 97.0551C59.9026 97.0507 60.5299 97.0527 61.1193 96.8455C61.7884 96.6224 61.9992 96.2037 61.7964 95.5957C61.7615 95.5229 61.7171 95.4532 61.6853 95.3899C61.6917 95.3772 61.6981 95.3645 61.6949 95.355C61.679 95.3392 61.6632 95.3234 61.6473 95.3076C61.606 95.2158 61.5552 95.1272 61.514 95.0353C61.4727 94.9752 61.4346 94.9246 61.3933 94.8645C61.0981 94.2978 60.6849 93.8233 60.2431 93.3583C60.1732 93.2761 60.1001 93.1843 60.0397 93.0989C60.0079 93.0673 59.9666 93.0388 59.938 93.0167C59.2549 92.0832 58.473 91.2355 57.6656 90.4068C57.529 90.1884 57.3765 89.9859 57.1635 89.8247C57.1444 89.7994 57.1253 89.7741 57.1063 89.7488C56.9888 89.5557 56.8458 89.3817 56.6485 89.268C56.6232 89.192 56.5979 89.116 56.5055 89.094C56.4262 88.9199 56.3182 88.787 56.1464 88.6859C56.0956 88.629 56.0511 88.5594 56.0002 88.5024L55.9971 88.4612L55.9526 88.455L55.9271 88.4424C55.0373 87.3667 54.1252 86.3196 53.1206 85.3456C52.7648 84.8519 52.3547 84.4186 51.8426 84.0932C51.8236 84.0679 51.8013 84.0331 51.7823 84.0077C51.7728 83.9476 51.7346 83.9286 51.6869 83.9446C50.644 83.015 49.4766 82.2852 48.1911 81.7427C47.0521 81.1302 45.9037 80.5208 44.7647 79.9083C44.6979 79.8672 44.6407 79.823 44.5739 79.7819C44.5325 79.7535 44.4912 79.7251 44.4498 79.6966C44.4212 79.6745 44.3926 79.6524 44.3513 79.6239C43.1268 78.7232 41.9822 77.7114 40.879 76.6647C40.8759 76.6235 40.86 76.6077 40.8218 76.5887C40.6693 76.4179 40.5327 76.2312 40.361 76.0668C39.5439 75.3047 38.9246 74.3394 38.1937 73.4852C37.936 73.3178 38.0098 72.9659 37.8255 72.7634C37.6002 72.279 37.3813 71.782 37.3472 71.2338C37.5233 70.6789 37.985 70.6622 38.4402 70.7215C38.9082 70.7871 39.3697 70.9288 39.8281 71.0293C42.8353 72.1484 45.6603 73.6766 48.578 75.0049C49.7298 75.5287 50.8848 76.062 52.1197 76.3891C52.4698 76.4835 52.8295 76.5747 53.2085 76.5328C53.6671 76.4748 53.8522 76.2336 53.7415 75.7744C53.5423 74.954 53.0116 74.3181 52.5127 73.6821C49.9231 70.3441 46.8997 67.4568 43.3947 65.068C42.7745 64.6414 42.199 64.1577 41.6107 63.6994C41.2164 63.3453 40.8126 62.9943 40.4183 62.6402L40.4152 62.6307C39.9479 62.1531 39.4679 61.6692 39.0006 61.1916C38.7464 60.8435 38.4636 60.505 38.1425 60.2109C38.1012 60.1508 38.0599 60.0907 38.0186 60.0306C38.0155 59.9577 37.9774 59.9071 37.9074 59.8882L37.8915 59.8724C37.6407 59.4387 37.3834 59.0178 37.0561 58.6413C37.0466 58.6128 37.0244 58.578 37.0149 58.5495C36.9102 58.2677 36.7737 58.0176 36.5703 57.7898C36.5386 57.7265 36.5069 57.6632 36.4751 57.5999C36.4499 57.4605 36.396 57.3307 36.2719 57.2454C36.2402 57.1821 36.218 57.1156 36.1863 57.0522C36.1863 57.0206 36.1768 56.9921 36.1482 56.9699C36.142 56.8875 36.1102 56.8242 36.0275 56.799C36.0819 56.6437 35.9289 56.6947 35.8717 56.6504C35.8244 56.3495 35.7198 56.0676 35.5738 55.7891C35.1996 54.8582 34.8254 53.9272 34.4513 52.9963C34.4101 52.8728 34.3657 52.7398 34.3245 52.6163C34.1224 51.628 33.7195 50.7067 33.5747 49.6993C33.7351 49.0018 34.1111 48.8553 34.709 49.2787C34.9062 49.4241 35.097 49.5822 35.2973 49.7371L35.31 49.7434C35.7738 50.4016 36.2281 51.063 36.6919 51.7212C36.7109 51.7465 36.73 51.7718 36.7427 51.8098C37.0539 52.3289 37.432 52.794 37.9984 53.0591L38.0302 53.059C38.1192 53.1666 38.2273 53.2361 38.3578 53.277C38.6092 53.3621 38.9146 53.5453 39.1218 53.4023C39.3386 53.2561 39.1194 52.9492 39.1134 52.7083C39.0913 52.6101 39.0692 52.5119 39.0566 52.4106C38.8489 50.8963 38.3864 49.4775 37.5352 48.199C37.497 48.1483 37.4621 48.1072 37.424 48.0566C37.4591 47.9709 37.4146 47.933 37.351 47.9014C37.3097 47.8413 37.2811 47.7875 37.2398 47.7274C37.208 47.6957 37.1858 47.6609 37.154 47.6293C37.1254 47.5755 37.0969 47.5217 37.0619 47.4806C36.2549 46.3984 35.4129 45.3385 34.5294 44.3135C34.4881 44.2534 34.4499 44.2027 34.4087 44.1426C34.3801 44.0571 34.3421 43.9748 34.2402 43.956C33.9609 43.4368 33.5859 42.9812 33.2045 42.5383C33.1854 42.513 33.1632 42.4782 33.1442 42.4529C33.1284 42.3737 33.0871 42.3136 33.0043 42.2884C32.979 42.2124 32.9696 42.1205 32.8549 42.1271C32.8136 42.0986 32.7658 42.0829 32.7245 42.0544C32.6516 41.8676 32.5914 41.6871 32.5184 41.5003C32.4012 41.1488 32.284 40.7973 32.1699 40.4553C32.17 40.4236 32.1573 40.3856 32.1574 40.3539C32.1963 39.8975 32.2607 39.4537 32.6306 39.1298C33.3513 38.4882 33.6138 37.6828 33.4912 36.7419C33.4785 36.7039 33.4754 36.6627 33.4659 36.6342C33.4948 36.4979 33.495 36.3712 33.4219 36.2477C33.4093 36.178 33.3967 36.1083 33.3872 36.0481C33.4448 35.934 33.3908 35.8358 33.34 35.7472C33.3179 35.649 33.2957 35.5508 33.2832 35.4494C33.2964 35.1389 33.2014 34.8539 33.0649 34.5721C33.0176 34.2711 32.9226 33.9861 32.7798 33.7171C32.7198 33.3781 32.5675 33.0805 32.396 32.7893C32.3422 32.5961 32.2852 32.3934 32.1549 32.2257C32.1646 32.1909 32.1487 32.1751 32.1232 32.1624C32.1171 32.0167 32.0823 31.8805 31.9901 31.7634C31.9841 31.5543 31.9303 31.3611 31.8064 31.1807C31.8099 31.0318 31.7687 30.9083 31.6861 30.788C31.7084 30.7594 31.6989 30.7309 31.6703 30.7088C31.626 30.5441 31.5912 30.3762 31.5469 30.2115C31.4525 29.5779 31.3453 28.938 31.2508 28.3045C31.2604 28.2696 31.2668 28.2252 31.2764 28.1903C31.2703 28.0446 31.2546 27.902 31.2517 27.7657C31.3124 27.6611 31.3093 27.5565 31.2649 27.4552C31.2745 27.4203 31.2778 27.3981 31.2555 27.3633C31.3648 26.7673 31.5791 26.1997 31.8824 25.6762C32.0227 25.5872 32.1629 25.4982 32.3032 25.4092C32.523 25.3359 32.7524 25.2594 32.9691 25.1766C33.1379 25.1731 33.3192 25.2393 33.4754 25.1344C33.9657 25.2032 34.4496 25.2846 34.9398 25.3534C34.9653 25.366 34.9971 25.3659 35.0353 25.3532C35.3599 25.4666 35.6877 25.5896 36.0219 25.6998C37.1198 26.0621 38.0262 26.7416 38.923 27.4243C39.349 27.8418 39.775 28.2592 40.1914 28.6799C41.2242 29.9296 42.2251 31.211 43.175 32.5305C43.1972 32.5654 43.2099 32.6034 43.2289 32.6287C43.6133 33.2078 43.9816 33.8028 44.4265 34.3407C44.455 34.4579 44.509 34.556 44.6076 34.6287L44.6107 34.6699L44.6489 34.6888C44.7283 34.7996 44.8109 34.9198 44.8903 35.0306C45.1317 35.404 45.373 35.7775 45.6144 36.1509C45.7287 36.3345 45.8721 36.3184 46.0442 36.2293C46.8664 35.7967 47.723 35.7539 48.5983 35.9898L48.6206 35.9929C48.9641 36.1951 49.3109 36.4067 49.6449 36.612C49.845 36.8937 50.0738 37.1657 50.2484 37.4664C50.7467 38.451 50.9997 39.5279 51.2813 40.5953C51.7275 42.2517 52.1514 43.905 52.5785 45.5678C52.5684 45.9513 52.676 46.306 52.8219 46.6479C52.7961 46.8571 52.8595 47.0471 52.942 47.2308C52.9641 47.329 52.9989 47.4335 53.0211 47.5317C52.9761 47.7472 53.0586 47.9309 53.1315 48.1177C53.1632 48.2127 53.1854 48.3109 53.2202 48.4154C53.1943 48.6563 53.2704 48.8843 53.356 49.1091C53.3686 49.1788 53.3876 49.2358 53.4002 49.3055C53.5641 50.3382 53.6897 51.3837 54.3824 52.2506C54.4365 52.3171 54.4905 52.3835 54.5445 52.4499L54.5286 52.4658L54.5604 52.4657C54.592 52.5924 54.7034 52.6081 54.8021 52.6491C55.1136 52.9463 55.4732 53.1009 55.9032 53.0525C56.1642 53.1027 56.3936 52.9945 56.6262 52.9275C56.7791 52.8765 56.8843 52.7781 56.9037 52.6133C57.0485 51.7415 57.1836 50.873 57.3315 50.0108L57.3379 49.9981C57.3826 49.9727 57.4145 49.9409 57.3763 49.8903C57.3764 49.8586 57.3733 49.8174 57.3733 49.7857C57.495 49.3545 57.5913 48.9107 57.6016 48.4638C57.6273 48.3497 57.6529 48.2356 57.669 48.1246C57.7781 47.6237 57.8999 47.1292 58.009 46.6283C58.5834 45.8983 58.8827 45.9041 59.4642 46.6286C59.6104 46.8121 59.7438 46.9893 59.89 47.1728C59.9186 47.2266 59.9503 47.2899 59.9789 47.3437C60.5855 48.3027 60.8958 49.3605 61.0053 50.4852C60.935 50.6248 60.9412 50.7706 60.9887 50.9131C60.9918 50.986 61.0012 51.0461 61.0043 51.119C60.8562 52.0763 60.7018 53.0463 60.5537 54.0036C60.4867 54.0576 60.4994 54.1273 60.5215 54.1938C60.3169 54.7265 60.1918 55.275 60.1271 55.8455C59.8423 56.7112 59.7453 57.5987 59.7247 58.4923C59.6407 61.1702 60.7389 63.2848 62.8824 64.8714C63.3085 65.1938 63.8241 65.3385 64.3468 65.0587C64.9651 64.7152 65.5262 64.2958 65.9634 63.7277C67.0451 62.3535 67.6114 60.7394 68.1141 59.0938C68.197 58.9922 68.245 58.8812 68.2325 58.7482C68.3252 58.5167 68.4179 58.2851 68.5011 58.0568C68.7315 57.3782 68.9014 56.6776 69.2432 56.0463C69.5434 55.4817 69.7123 55.4465 70.2053 55.7782C70.2688 55.8732 70.3291 55.9586 70.3927 56.0536C70.3831 56.0884 70.3926 56.1169 70.4371 56.1232C70.7387 56.6772 70.9096 57.2852 71.1188 57.8806C71.1314 57.9503 71.1504 58.0073 71.1631 58.077C71.1277 58.2576 71.2039 58.4223 71.2514 58.5965C71.3899 59.5215 71.4234 60.4499 71.4059 61.3848C71.3165 61.5307 71.3449 61.6796 71.3542 61.8349C71.1715 62.5609 70.9888 63.2869 70.8061 64.0129L70.8157 64.0098C70.7711 64.0035 70.7456 64.0543 70.7295 64.1018Z" fill="#5F9E46"/>
<path d="M73.7484 64.8748C73.7757 64.9075 73.7929 64.9394 73.8202 64.9721C73.8465 65.0149 73.8728 65.0576 73.8991 65.1003C74.276 65.6088 74.6438 66.1064 75.0207 66.6149C75.7199 67.5664 76.5967 68.3537 77.3727 69.2421C77.4 69.2748 77.4282 69.2976 77.4655 69.3313C77.7466 69.5692 78.0295 69.7872 78.2009 70.1152C78.3485 70.1594 78.4403 70.2586 78.4982 70.3949C78.5383 70.3987 78.5565 70.4205 78.5628 70.4614C78.7659 70.5611 78.8802 70.7429 78.9945 70.9248L79.0127 70.9466C79.0299 70.9784 79.0581 71.0012 79.0753 71.033C79.1819 71.0834 79.2345 71.1688 79.2752 71.2733C79.4702 71.3521 79.5735 71.543 79.7017 71.6859C80.4869 72.5852 81.325 73.4593 81.9026 74.52L81.9126 74.521C82.3359 75.0741 82.581 75.6909 82.5961 76.3864C82.6039 76.5179 82.6016 76.6485 82.6085 76.79C82.5962 76.9196 82.583 77.0592 82.5607 77.1878C82.5675 77.3293 82.5452 77.458 82.4627 77.5809C82.2306 78.5347 81.4749 79.2478 80.5422 79.3706C80.2958 79.4077 80.0633 79.4057 79.832 79.2832C78.9381 78.9973 78.5099 78.2828 78.1475 77.5141L78.1485 77.5041C77.8931 77.2083 77.7447 76.8522 77.5953 76.5061C77.5609 76.4425 77.5274 76.3689 77.4829 76.3043C77.3121 76.0769 77.1505 75.8604 76.9797 75.6329L76.9506 75.6201C76.8895 75.6244 76.8622 75.5916 76.8679 75.5318L76.8588 75.5209C76.2474 75.0304 76.0913 75.0759 75.7315 75.7762C75.5451 76.1408 75.5675 76.5453 75.4404 76.9256C75.4372 77.0661 75.445 77.1977 75.4418 77.3382C75.5287 77.8092 75.6257 78.2811 75.7126 78.7521C75.7198 78.7829 75.727 78.8138 75.7342 78.8447C75.8648 79.0683 75.9425 79.3171 75.979 79.572C76.1579 79.8204 76.2418 80.11 76.3156 80.3986L76.3056 80.3977C76.3319 80.4404 76.3482 80.4822 76.3755 80.515C76.3936 80.5368 76.4008 80.5677 76.388 80.5966C76.6564 81.0748 76.8728 81.5681 77.0572 82.0785C77.0835 82.1212 77.1098 82.1639 77.1261 82.2057C77.5258 83.0081 77.9254 83.8105 78.3351 84.6139L78.325 84.6129C78.3843 84.6286 78.4106 84.6713 78.4049 84.7311C78.4322 84.7639 78.4485 84.8057 78.4757 84.8384L78.4939 84.8603C78.9776 85.6304 79.4521 86.3896 79.9358 87.1597L79.9138 87.1778L79.9258 87.1588C80.1749 87.4137 80.3581 87.7228 80.5094 88.049C80.5438 88.1126 80.5874 88.1872 80.6218 88.2508C81.2455 89.1449 81.7012 90.1035 81.8409 91.1931C81.9035 91.2795 81.9552 91.3749 81.9238 91.4927C81.9373 91.5644 81.9517 91.6261 81.9651 91.6978C81.9685 91.7685 81.9719 91.8392 81.9754 91.91C82.0581 91.9983 82.0477 92.108 82.0373 92.2176C82.0655 92.2404 82.0627 92.2704 82.0498 92.2993C82.1394 92.5291 82.1568 92.7722 82.1432 93.0224C82.1466 93.0931 82.15 93.1639 82.1544 93.2247C82.2514 93.6966 82.3082 94.1647 82.313 94.648C82.3854 94.846 82.4276 95.0412 82.3777 95.2477C82.4947 95.7215 82.4795 96.2029 82.5043 96.6881C82.4968 96.7679 82.5002 96.8387 82.4926 96.9184C82.6578 97.7388 82.6696 98.5749 82.6715 99.41C82.6758 99.4708 82.6793 99.5415 82.6736 99.6014C82.7018 99.6242 82.699 99.6541 82.6761 99.6821C82.7374 99.8891 82.7577 100.102 82.7068 100.319C82.7685 100.415 82.7581 100.525 82.7186 100.622C82.7737 100.788 82.7577 100.957 82.7316 101.126C82.832 102.202 82.8212 103.277 82.8004 104.351C82.7944 104.522 82.7893 104.682 82.7833 104.853C82.8396 105.753 82.8238 106.667 82.7288 107.564C82.7945 107.832 82.7699 108.091 82.7043 108.356C82.739 108.631 82.7035 108.899 82.6679 109.168C82.7437 109.436 82.678 109.702 82.6224 109.968C82.6793 110.436 82.5948 110.901 82.5513 111.36C82.3913 113.155 82.2012 114.948 82.0312 116.743C82.017 116.892 81.9737 117.029 81.9394 117.176C81.965 117.44 81.9514 117.691 81.8366 117.941C81.8211 118.211 81.8157 118.483 81.72 118.745C81.7189 119.077 81.6877 119.406 81.5672 119.716C81.5606 119.786 81.554 119.856 81.5373 119.925C81.4695 120.854 81.2431 121.748 81.086 122.659C81.0452 122.876 80.9952 123.083 81.2356 123.216C81.335 123.235 81.4353 123.245 81.5346 123.264C81.8766 123.287 82.2076 123.318 82.5301 123.439C82.7608 123.461 83.0016 123.484 83.2323 123.506C83.5661 123.507 83.9109 123.5 84.2448 123.501L84.2777 123.474C84.2796 123.454 84.2815 123.434 84.2934 123.415C84.3627 122.577 84.4211 121.747 84.4904 120.909C84.4859 119.782 84.5917 118.665 84.7285 117.541C84.7323 117.501 84.7361 117.462 84.7298 117.421C84.7435 116.849 84.7171 116.273 84.8211 115.709C84.8268 115.649 84.8334 115.58 84.8391 115.52C84.8551 115.35 84.8612 115.18 84.8772 115.01C84.899 114.781 84.9107 114.551 84.9333 114.311C84.9215 113.475 84.9707 112.635 85.0692 111.809C85.0853 111.64 85.0903 111.479 85.1064 111.31C85.1477 109.272 85.2702 107.231 85.3918 105.201C85.4006 105 85.4195 104.801 85.4274 104.61C85.3517 104.342 85.3973 104.074 85.4419 103.817C85.4006 103.612 85.4305 103.404 85.4694 103.206C85.5144 102.838 85.2604 102.422 85.6636 102.118C85.9117 101.85 86.1951 101.635 86.5322 101.496C86.5727 101.389 86.6395 101.325 86.7517 101.316C86.9339 101.102 87.1706 100.953 87.4064 100.814C87.4193 100.785 87.4513 100.768 87.4914 100.772C87.7266 100.533 87.979 100.325 88.2778 100.163L88.2888 100.154C88.2945 100.094 88.3264 100.077 88.3866 100.082L88.4076 100.074C89.0599 99.4922 89.7566 98.9748 90.4634 98.4583C90.5064 98.4322 90.5503 98.3961 90.5932 98.37C91.5061 97.6014 92.4189 96.8328 93.3317 96.0643C93.3875 96.0092 93.4534 95.9551 93.5092 95.9L93.512 95.8701L93.5431 95.863C93.5349 95.8421 93.5459 95.8331 93.5669 95.825C93.5626 95.7642 93.5945 95.7471 93.6547 95.7528L93.6757 95.7448C93.9128 95.4856 94.1227 95.1936 94.4334 95.0118C94.471 94.9349 94.5077 94.8679 94.5554 94.792C94.6746 94.6021 94.8951 94.4117 94.7663 94.1682C94.6204 93.8928 94.32 93.9649 94.0827 94.0128C93.4949 94.1282 92.9153 94.2644 92.3256 94.3996C91.7259 94.5339 91.1152 94.6773 90.4942 94.6084C89.7921 94.5418 89.4922 94.1815 89.5527 93.5434C89.5703 93.4646 89.5979 93.3867 89.6146 93.3179C89.6055 93.3069 89.5964 93.296 89.5973 93.2861C89.6093 93.2671 89.6212 93.2481 89.6331 93.2291C89.6526 93.1303 89.6821 93.0325 89.7016 92.9338C89.7282 92.8659 89.754 92.808 89.7806 92.7401C89.9404 92.1215 90.236 91.566 90.5616 91.0134C90.6112 90.9175 90.6617 90.8116 90.7012 90.7148C90.7251 90.6768 90.7589 90.6398 90.7818 90.6118C91.2368 89.5483 91.8074 88.5461 92.4072 87.5567C92.491 87.3132 92.5939 87.0815 92.7652 86.8764C92.778 86.8475 92.7909 86.8185 92.8037 86.7895C92.8747 86.5749 92.9748 86.3732 93.1413 86.2179C93.1488 86.1382 93.1564 86.0584 93.2414 86.0162C93.2794 85.8286 93.3547 85.6748 93.4992 85.5376C93.5359 85.4707 93.5636 85.3928 93.6003 85.3259L93.594 85.2851L93.636 85.2689L93.658 85.2509C94.2823 84.0023 94.9348 82.7765 95.6939 81.601C95.9293 81.0398 96.2311 80.5252 96.6566 80.0927C96.6695 80.0638 96.6833 80.0248 96.6962 79.9959C96.6918 79.9351 96.7247 79.908 96.7749 79.9128C97.5813 78.772 98.5541 77.7978 99.6842 76.9794C100.656 76.1259 101.637 75.2733 102.609 74.4197C102.664 74.3646 102.71 74.3086 102.766 74.2535C102.8 74.2165 102.834 74.1795 102.868 74.1425C102.891 74.1144 102.913 74.0864 102.947 74.0494C103.937 72.8958 104.824 71.652 105.663 70.3834C105.657 70.3426 105.669 70.3236 105.702 70.2966C105.812 70.0957 105.903 69.883 106.033 69.6841C106.657 68.7574 107.043 67.6774 107.562 66.6804C107.775 66.4591 107.624 66.133 107.758 65.8942C107.868 65.3715 107.97 64.8378 107.879 64.2961C107.583 63.7952 107.129 63.883 106.699 64.0434C106.258 64.2129 105.84 64.455 105.416 64.6562C102.739 66.4245 100.331 68.5504 97.788 70.5024C96.7839 71.2724 95.7789 72.0524 94.6495 72.6495C94.3297 72.8204 93.9999 72.9904 93.6212 73.035C93.1613 73.0819 92.9266 72.8887 92.9309 72.4163C92.9401 71.5721 93.3137 70.8329 93.6563 70.1009C95.4266 66.2649 97.7211 62.7703 100.597 59.6527C101.105 59.0972 101.557 58.4962 102.027 57.917C102.331 57.4831 102.645 57.0501 102.949 56.6162L102.95 56.6063C103.298 56.0356 103.657 55.4559 104.004 54.8853C104.173 54.4889 104.372 54.0953 104.619 53.7364C104.646 53.6685 104.672 53.6006 104.699 53.5327C104.686 53.461 104.711 53.4031 104.775 53.3689L104.787 53.3499C104.934 52.8709 105.089 52.4028 105.323 51.9622C105.326 51.9323 105.34 51.8934 105.343 51.8635C105.381 51.5653 105.458 51.2909 105.605 51.0232C105.621 50.9543 105.638 50.8855 105.655 50.8166C105.648 50.6752 105.671 50.5365 105.773 50.4254C105.789 50.3566 105.796 50.2868 105.813 50.218C105.805 50.1871 105.808 50.1572 105.831 50.1292C105.819 50.0475 105.835 49.9787 105.91 49.9355C105.822 49.7964 105.983 49.8116 106.028 49.7555C106.007 49.4517 106.045 49.1535 106.124 48.8492C106.279 47.8579 106.434 46.8666 106.588 45.8753C106.601 45.7457 106.614 45.6061 106.626 45.4765C106.6 44.4681 106.785 43.4796 106.699 42.4655C106.385 41.8221 105.986 41.7642 105.499 42.3115C105.34 42.4976 105.19 42.6947 105.029 42.8907L105.018 42.8997C104.715 43.6456 104.421 44.3924 104.118 45.1382C104.105 45.1672 104.092 45.1961 104.089 45.236C103.902 45.8119 103.639 46.3503 103.147 46.7362L103.116 46.7433C103.053 46.8682 102.964 46.9603 102.846 47.0296C102.62 47.1692 102.364 47.4165 102.13 47.3239C101.886 47.2304 102.03 46.8819 101.981 46.6459C101.981 46.5453 101.98 46.4446 101.97 46.343C101.83 44.8209 101.961 43.3344 102.502 41.8968C102.528 41.8389 102.553 41.7909 102.578 41.733C102.525 41.6575 102.56 41.6105 102.615 41.5654C102.641 41.4975 102.657 41.4387 102.684 41.3708C102.707 41.3328 102.721 41.2939 102.745 41.2559C102.761 41.197 102.777 41.1382 102.801 41.0902C103.344 39.8539 103.925 38.6315 104.555 37.4337C104.581 37.3658 104.607 37.3078 104.634 37.24C104.642 37.1502 104.661 37.0614 104.756 37.0201C104.911 36.4514 105.173 35.923 105.445 35.4055C105.458 35.3765 105.472 35.3376 105.485 35.3086C105.482 35.2279 105.509 35.16 105.584 35.1168C105.591 35.0371 105.58 34.9455 105.693 34.926C105.727 34.889 105.77 34.8629 105.804 34.8258C105.832 34.6274 105.85 34.4379 105.879 34.2395C105.914 33.8706 105.949 33.5017 105.983 33.1428C105.976 33.1119 105.98 33.072 105.973 33.0412C105.832 32.6053 105.669 32.1875 105.236 31.9553C104.389 31.4928 103.951 30.7673 103.859 29.823C103.863 29.7831 103.856 29.7423 103.859 29.7124C103.8 29.5861 103.771 29.4626 103.815 29.3259C103.811 29.2552 103.808 29.1844 103.804 29.1236C103.722 29.0254 103.752 28.9176 103.782 28.8198C103.781 28.7191 103.781 28.6185 103.77 28.5169C103.687 28.2173 103.715 27.9182 103.785 27.6129C103.763 27.3091 103.791 27.01 103.87 26.7156C103.852 26.3719 103.933 26.0476 104.034 25.7252C104.043 25.5249 104.053 25.3146 104.142 25.1218C104.125 25.09 104.137 25.071 104.159 25.053C104.132 24.9096 104.135 24.7691 104.199 24.6342C104.157 24.4291 104.166 24.2288 104.246 24.0251C104.209 23.8808 104.222 23.7512 104.275 23.6154C104.247 23.5926 104.25 23.5627 104.272 23.5347C104.278 23.3642 104.274 23.1928 104.28 23.0224C104.23 22.3838 104.19 21.7362 104.139 21.0976C104.122 21.0658 104.105 21.024 104.088 20.9922C104.061 20.8489 104.044 20.7064 104.017 20.573C103.934 20.4847 103.913 20.3821 103.934 20.2734C103.916 20.2416 103.908 20.2207 103.922 20.1818C103.681 19.6258 103.345 19.1211 102.931 18.6795C102.774 18.6244 102.618 18.5693 102.461 18.5143C102.23 18.4924 101.989 18.4696 101.76 18.4378C101.594 18.4724 101.433 18.5778 101.257 18.5108C100.795 18.6884 100.342 18.8768 99.8795 19.0543C99.8576 19.0724 99.8266 19.0795 99.7864 19.0757C99.4958 19.2594 99.2042 19.4531 98.9035 19.6358C97.9155 20.2363 97.1857 21.1027 96.4659 21.9701C96.145 22.4729 95.8241 22.9756 95.5133 23.4793C94.7888 24.9297 94.1026 26.4038 93.4748 27.9035C93.461 27.9425 93.4572 27.9824 93.4443 28.0113C93.2005 28.6622 92.9757 29.325 92.6636 29.9493C92.6623 30.0699 92.6318 30.1776 92.5522 30.2707L92.5584 30.3115L92.5255 30.3386C92.4731 30.4644 92.4197 30.6002 92.3673 30.726C92.2164 31.1442 92.0654 31.5625 91.9145 31.9808C91.8445 32.1854 91.7012 32.202 91.5135 32.154C90.6149 31.918 89.7706 32.0694 88.9711 32.4966L88.9501 32.5047C88.661 32.7791 88.3709 33.0634 88.0918 33.3388C87.9603 33.6583 87.7987 33.9749 87.6964 34.3073C87.4329 35.3788 87.4293 36.485 87.3956 37.5884C87.3344 39.3028 87.2942 41.0091 87.253 42.7254C87.3494 43.0967 87.3245 43.4665 87.2594 43.8326C87.3317 44.0306 87.3128 44.23 87.2739 44.4275C87.2745 44.5281 87.2641 44.6378 87.2647 44.7385C87.357 44.9383 87.3181 45.1358 87.2892 45.3343C87.2797 45.434 87.2803 45.5347 87.2699 45.6443C87.3494 45.8732 87.3268 46.1125 87.2941 46.3508C87.2975 46.4215 87.2918 46.4814 87.2952 46.5521C87.3684 47.5952 87.4818 48.6421 87.0024 49.6428C86.9647 49.7197 86.9271 49.7967 86.8894 49.8736L86.9085 49.8854L86.8775 49.8926C86.8753 50.0231 86.7702 50.0635 86.6834 50.1256C86.4469 50.4855 86.1314 50.7172 85.7016 50.767C85.4587 50.8747 85.2107 50.8211 84.9691 50.8082C84.8086 50.793 84.6838 50.7208 84.6278 50.5646C84.2902 49.748 83.9627 48.9323 83.6242 48.1256L83.6151 48.1147C83.5659 48.1 83.5276 48.0763 83.5534 48.0183C83.5462 47.9875 83.5399 47.9467 83.5327 47.9158C83.3169 47.5231 83.1231 47.1124 83.0123 46.6794C82.9615 46.574 82.9108 46.4686 82.8701 46.3642C82.6509 45.9008 82.4207 45.4464 82.2014 44.983C81.4773 44.4013 81.187 44.4744 80.7838 45.3114C80.6828 45.5232 80.5927 45.7259 80.4917 45.9376C80.476 45.9965 80.4594 46.0653 80.4437 46.1242C80.0689 47.1953 80.0051 48.2958 80.152 49.4163C80.2519 49.5364 80.2788 49.6798 80.2647 49.8293C80.2781 49.901 80.2825 49.9618 80.2959 50.0335C80.656 50.9327 81.0252 51.8429 81.3853 52.7421C81.4627 52.7797 81.4661 52.8504 81.4595 52.9202C81.779 53.3931 82.0246 53.8992 82.2162 54.4405C82.6889 55.2196 82.9835 56.0624 83.2051 56.9284C83.8907 59.5183 83.2976 61.8261 81.567 63.8552C81.2246 64.2653 80.7549 64.5226 80.1826 64.3678C79.5027 64.1726 78.8615 63.8905 78.3075 63.4357C76.9437 62.3407 76.0281 60.8959 75.1673 59.406C75.0636 59.3258 74.9919 59.2284 74.9741 59.096C74.8315 58.8913 74.689 58.6867 74.5565 58.483C74.179 57.8738 73.8555 57.2295 73.3802 56.6916C72.9603 56.2092 72.7879 56.213 72.3824 56.6473C72.342 56.7542 72.3024 56.851 72.2619 56.9578C72.2792 56.9896 72.2763 57.0195 72.2343 57.0357C72.0654 57.6434 72.036 58.2743 71.9664 58.9015C71.9699 58.9723 71.9642 59.0321 71.9676 59.1028C72.0428 59.2709 72.0057 59.4485 71.9987 59.6289C72.0723 60.5613 72.249 61.4734 72.4768 62.3802C72.5968 62.5022 72.6027 62.6537 72.6287 62.8071C72.9704 63.4732 73.3121 64.1393 73.6538 64.8055L73.6438 64.8045C73.6858 64.7884 73.7221 64.8321 73.7484 64.8748Z" fill="#5F9E46"/>
</svg>
