<svg width="142" height="142" viewBox="0 0 142 142" fill="none" xmlns="http://www.w3.org/2000/svg">
<path d="M70.6337 44.9975C70.6337 44.9975 37.7006 30.4805 28.0622 66.2858C18.4237 102.091 49.6323 120.99 72.7165 118.415C95.8255 115.948 118.875 103.817 115.552 77.4817C112.445 51.097 100.649 35.9329 70.6337 44.9975Z" fill="#AF565F"/>
<path d="M97.6108 29.8896C96.7404 29.0525 90.8167 33.7567 84.3047 40.3248C83.9258 40.6424 83.572 41.0695 83.3004 41.3624C83.629 40.8259 83.9324 40.1799 84.261 39.6434C88.6851 31.3657 91.3537 24.2983 90.319 23.7295C89.2843 23.1607 84.8365 29.3694 80.3872 37.5376C80.3051 37.6718 80.2481 37.9154 80.1659 38.0495C80.1408 37.94 80.2481 37.9154 80.2229 37.8059C82.0662 28.6234 82.5766 21.015 81.485 20.6898C80.4185 20.4741 78.2176 26.6271 76.3876 34.8846C76.0024 26.3297 74.8395 19.7976 73.716 19.8254C72.4852 19.8779 71.8675 27.5109 72.1068 36.9061C72.1002 37.3686 72.1187 37.9406 72.2194 38.3784C72.0684 37.7217 71.8101 37.0896 71.6842 36.5423C68.8441 27.6299 65.5482 20.6662 64.3929 21.0471C63.2376 21.428 64.627 28.9452 67.5996 37.9424C67.6499 38.1613 67.6751 38.2708 67.7254 38.4897C67.7003 38.3802 67.7003 38.3803 67.5678 38.2955C62.278 30.5225 57.1444 24.9033 56.1719 25.5879C55.1994 26.2725 58.6848 33.0774 63.9746 40.8503C64.6556 41.8462 65.3365 42.8421 66.1248 43.8133C70.7151 50.0184 79.5003 50.8796 85.0835 45.6775C85.8162 44.9328 86.574 44.2976 87.3067 43.5529C93.9009 36.8507 98.3739 30.7514 97.6108 29.8896Z" fill="#6C6938"/>
</svg>
